<?xml version="1.0" standalone="no"?>
<!DOCTYPE svg PUBLIC "-//W3C//DTD SVG 20010904//EN"
 "http://www.w3.org/TR/2001/REC-SVG-20010904/DTD/svg10.dtd">
<svg version="1.0" xmlns="http://www.w3.org/2000/svg"
 width="2974.000000pt" height="1975.000000pt" viewBox="0 0 2974.000000 1975.000000"
 preserveAspectRatio="xMidYMid meet">

<g transform="translate(0.000000,1975.000000) scale(0.100000,-0.100000)"
fill="#000000" stroke="none">
<path d="M0 15941 l0 -3809 22 -14 c23 -15 38 -16 72 -2 16 6 17 3 12 -17 -3
-13 -3 -19 0 -12 3 7 12 9 20 6 8 -3 14 0 14 6 0 6 7 11 15 11 8 0 15 -5 15
-11 0 -5 -4 -8 -9 -5 -5 3 -11 0 -14 -7 -4 -10 2 -13 19 -9 16 3 24 12 25 26
1 15 3 17 6 4 2 -9 11 -19 19 -22 11 -4 14 -1 9 13 -3 12 0 21 11 25 12 4 14
13 10 32 -4 15 -3 23 2 20 18 -11 22 38 5 56 -15 17 -15 18 7 18 23 0 23 0 4
15 -12 9 -14 14 -5 15 7 0 11 6 8 14 -7 18 24 31 35 14 5 -9 8 -5 8 11 0 16 4
21 15 17 23 -9 75 13 68 30 -3 9 2 14 15 14 11 0 25 7 32 15 14 17 35 21 25 5
-3 -5 -1 -10 4 -10 6 0 11 4 11 9 0 4 11 6 25 3 17 -3 25 0 25 9 0 9 3 10 8 4
10 -14 35 -13 45 2 5 9 15 10 34 2 15 -6 39 -7 53 -3 36 10 54 10 62 0 9 -14
79 -13 121 1 44 14 65 33 59 51 -2 6 1 12 6 12 6 0 12 -5 14 -11 2 -7 17 -2
39 13 20 13 34 29 32 35 -2 6 5 14 17 18 13 4 19 12 16 21 -7 17 6 18 22 2 9
-9 12 -8 12 5 0 11 8 17 21 17 15 0 19 5 15 15 -3 9 0 15 10 15 10 0 14 6 10
15 -6 18 5 20 22 3 6 -6 15 -8 19 -4 5 4 0 13 -10 20 -21 16 -22 25 -2 22 16
-2 39 -21 61 -48 15 -19 25 -124 26 -267 l0 -121 42 0 c24 0 46 3 50 7 11 12
36 12 36 0 0 -6 6 -3 12 6 7 9 30 19 52 21 21 3 41 8 45 12 3 4 -1 5 -11 1
-29 -10 -30 6 -1 19 22 9 32 9 50 -2 18 -12 21 -12 17 -1 -3 8 2 14 11 14 8 0
15 -3 15 -7 0 -3 9 -6 20 -6 11 0 20 4 20 8 0 4 7 8 15 8 8 0 15 -4 15 -10 0
-5 8 -6 17 -3 13 5 15 2 10 -12 -6 -15 -5 -16 8 -5 12 10 19 10 27 2 15 -15
52 -16 42 -1 -4 8 0 7 15 -1 12 -6 19 -14 17 -19 -3 -4 9 -7 27 -6 18 1 35 -2
38 -7 3 -4 20 -10 37 -12 27 -3 32 0 33 18 1 14 3 16 6 5 3 -11 16 -15 44 -15
36 0 38 2 23 13 -10 7 -15 16 -11 19 3 3 16 -3 28 -15 12 -11 27 -17 33 -13 6
3 16 7 21 8 6 0 16 2 23 2 6 1 12 7 12 13 0 6 -7 8 -18 4 -13 -5 -14 -3 -6 5
9 9 17 9 33 0 12 -6 27 -8 33 -4 8 5 9 2 5 -10 -6 -14 -3 -15 13 -6 11 6 20
15 20 21 0 6 15 9 34 8 19 -2 38 0 42 4 9 9 57 -3 66 -16 4 -7 12 -6 22 2 13
11 16 11 16 0 0 -10 3 -10 12 -1 15 15 32 16 23 2 -9 -14 1 -13 38 5 19 10 26
11 16 3 -16 -13 -15 -38 2 -38 6 0 8 4 5 9 -6 10 70 31 106 30 22 0 22 -1 3
-9 -16 -7 -17 -9 -3 -9 9 -1 20 4 24 10 3 6 19 9 35 5 17 -3 29 -1 32 7 3 9 8
9 21 -2 21 -17 33 -7 16 14 -8 10 -9 15 -1 15 6 0 11 -4 11 -10 0 -5 6 -10 14
-10 8 0 17 -6 19 -12 4 -10 8 -10 14 -2 8 12 72 12 92 0 6 -4 11 -3 11 3 0 11
61 31 94 31 15 0 16 -3 6 -15 -10 -12 -10 -15 3 -15 9 0 23 10 31 22 9 13 16
16 16 9 0 -9 8 -12 25 -9 14 3 30 -1 36 -8 9 -11 8 -14 -1 -14 -8 0 -10 -3 -6
-7 4 -5 14 0 21 10 8 12 15 14 20 7 3 -5 11 -7 17 -4 7 4 6 9 -2 14 -9 5 -9 9
-1 14 6 4 15 -4 21 -18 9 -24 22 -36 19 -18 -1 4 -1 16 0 27 1 17 3 17 11 5 8
-13 12 -13 32 -1 l23 14 -20 -23 -20 -23 24 8 c34 11 81 12 81 3 0 -4 7 -8 16
-8 8 0 12 5 9 10 -3 6 1 10 10 10 9 0 19 -9 22 -20 3 -11 10 -17 15 -14 5 3 7
12 5 19 -4 8 7 12 36 13 78 0 84 1 67 12 -8 5 -12 12 -8 15 3 3 13 -1 22 -10
12 -12 16 -13 17 -3 0 7 5 3 11 -9 15 -31 24 -29 37 7 12 36 51 43 51 9 0 -21
0 -21 20 2 16 19 21 21 29 10 7 -11 9 -11 14 0 5 12 7 12 15 0 8 -11 12 -10
21 5 10 18 10 18 11 -1 1 -19 1 -19 11 -2 6 9 15 15 20 12 5 -4 7 -11 4 -16
-4 -5 -1 -9 4 -9 6 0 11 4 11 9 0 5 18 13 40 19 34 8 40 7 45 -7 3 -9 14 -17
26 -18 17 -2 18 1 9 13 -13 15 0 19 48 15 14 -1 22 4 22 14 0 20 19 19 42 -2
10 -9 18 -11 18 -6 0 6 7 14 16 17 8 3 13 2 10 -3 -3 -5 10 -8 29 -8 24 1 35
6 35 17 1 12 4 11 16 -5 16 -19 16 -19 12 6 -4 23 -1 26 19 25 16 -1 23 -7 24
-21 0 -18 1 -18 9 3 11 26 30 29 30 5 0 -13 3 -14 11 -6 6 6 18 9 25 6 9 -3
14 2 14 12 0 11 5 15 15 11 8 -3 22 2 31 12 13 12 19 13 22 4 2 -7 22 -12 48
-12 28 0 43 4 39 10 -3 6 1 10 10 10 9 0 13 -4 10 -10 -3 -5 3 -10 14 -10 12
0 21 4 21 8 0 4 14 13 30 19 17 6 30 18 30 27 0 19 40 22 59 4 11 -11 12 -10
6 1 -6 11 -4 13 8 8 12 -4 17 -1 17 11 1 16 1 16 10 0 6 -10 18 -14 30 -11 15
4 18 9 10 18 -8 9 -5 14 12 18 29 8 34 2 17 -20 -11 -14 -6 -13 24 5 20 12 44
19 52 16 8 -4 15 -1 15 5 0 7 9 9 25 5 17 -4 25 -2 25 7 0 8 5 6 12 -6 12 -19
12 -19 19 5 6 22 7 23 8 4 1 -21 31 -44 31 -24 0 6 -4 10 -8 10 -5 0 -9 7 -9
15 0 11 7 13 26 8 14 -3 28 -10 29 -15 6 -15 22 -8 23 10 0 14 2 14 9 -3 7
-18 8 -19 15 -2 8 19 45 24 45 6 0 -8 5 -8 15 1 12 10 15 10 15 0 0 -10 3 -10
14 -1 11 10 15 8 19 -6 4 -17 5 -17 6 0 1 18 21 25 21 7 0 -5 5 -10 11 -10 5
0 7 5 3 11 -5 9 2 10 22 5 l29 -6 -27 15 c-48 27 -29 27 47 0 14 -5 16 -4 7 3
-11 7 -9 11 9 15 31 8 46 -3 25 -18 -15 -12 -15 -13 4 -18 11 -3 18 -1 14 4
-3 5 0 9 5 9 6 0 11 -4 11 -10 0 -5 9 -10 21 -10 11 0 34 -10 51 -21 23 -17
37 -20 66 -14 20 4 62 8 92 10 30 1 74 7 98 12 23 6 42 6 42 2 0 -10 29 -7 48
4 8 5 12 2 12 -8 0 -13 6 -16 25 -11 14 4 25 2 25 -3 0 -10 10 -9 48 6 9 3 20
7 25 8 4 2 8 3 10 5 7 6 123 29 184 37 24 3 40 9 37 14 -3 5 4 9 16 9 12 0 19
-4 16 -9 -5 -8 22 -8 32 -1 1 2 7 4 12 5 6 1 13 4 18 5 4 1 22 3 40 4 18 0 37
8 42 16 8 13 10 12 10 -3 0 -14 5 -16 28 -10 15 4 36 6 47 5 85 -8 127 -3 140
14 14 19 14 19 15 0 0 -15 3 -16 14 -7 10 9 16 9 21 1 5 -8 13 -6 25 5 19 17
139 47 153 38 17 -10 87 -9 87 1 0 6 5 4 10 -4 9 -13 10 -13 10 0 0 13 14 16
69 16 38 0 67 -4 65 -8 -2 -4 13 -15 33 -25 21 -9 47 -25 57 -35 19 -18 19
-18 -8 -18 -25 0 -27 -2 -15 -16 9 -11 15 -12 17 -5 3 9 7 9 18 0 11 -9 14 -8
14 2 0 11 2 11 10 -1 13 -21 12 -31 -2 -29 -35 4 -41 -3 -15 -17 18 -10 26
-21 23 -30 -3 -8 -9 -21 -12 -29 -5 -11 -2 -13 10 -9 9 3 16 2 16 -4 0 -5 -10
-13 -22 -16 -23 -6 -23 -7 -3 -18 28 -16 36 -30 24 -44 -7 -9 -6 -20 3 -35 10
-17 10 -23 1 -26 -7 -3 -13 -13 -13 -23 0 -10 -5 -22 -11 -25 -6 -4 -8 -13 -5
-20 2 -7 -2 -16 -10 -19 -8 -3 -14 -12 -14 -21 0 -10 -10 -15 -29 -15 -17 0
-33 -4 -36 -10 -7 -12 -65 -14 -65 -2 0 11 -129 13 -149 3 -9 -6 -60 -13 -112
-16 -52 -4 -98 -10 -104 -13 -5 -4 -26 -7 -45 -8 -19 -1 -73 -7 -120 -14 -47
-6 -104 -12 -128 -13 -24 -2 -47 -8 -51 -16 -5 -7 -13 -11 -19 -7 -6 3 -15 -2
-21 -11 -9 -14 -12 -15 -19 -5 -8 11 -10 11 -15 -2 -4 -9 -15 -16 -25 -16 -10
0 -27 -6 -38 -14 -15 -11 -22 -12 -33 -3 -12 9 -13 9 -7 0 5 -9 0 -13 -16 -14
-43 -3 -53 -5 -88 -13 -19 -5 -40 -13 -47 -18 -6 -5 -44 -9 -85 -10 -40 -1
-78 -5 -83 -9 -15 -11 -203 -17 -245 -7 -21 4 -46 3 -62 -3 -18 -7 -32 -8 -46
0 -13 7 -22 7 -30 -1 -15 -15 -230 -14 -245 1 -6 6 -27 11 -47 12 -26 0 -30 2
-16 8 18 7 18 8 2 14 -10 4 -25 3 -34 -2 -9 -5 -25 -6 -36 -2 -12 4 -33 7 -48
6 -16 0 -28 3 -28 7 0 4 -5 8 -10 8 -6 0 -9 -5 -8 -11 4 -14 -158 -22 -183 -9
-17 10 -156 15 -194 8 -11 -2 -27 -8 -35 -13 -16 -10 -29 -14 -69 -20 -13 -2
-27 -8 -30 -13 -3 -5 -28 -8 -54 -8 -27 1 -51 -2 -54 -7 -3 -5 -9 -4 -13 3 -6
9 -16 10 -41 2 -19 -6 -54 -14 -79 -18 -36 -5 -41 -8 -25 -15 11 -4 14 -8 7
-8 -7 -1 -22 4 -32 9 -12 7 -28 7 -44 0 -14 -5 -26 -6 -26 -2 0 4 -13 7 -30 8
-16 1 -27 -2 -25 -7 3 -4 1 -10 -4 -13 -5 -4 -12 -2 -15 3 -6 9 -45 7 -186
-10 -47 -5 -106 -10 -132 -11 -27 -2 -48 -5 -48 -9 0 -3 -34 -5 -76 -3 -45 2
-82 0 -90 -6 -8 -8 -14 -8 -19 0 -3 5 -13 10 -22 10 -15 0 -14 -2 0 -18 23
-25 21 -35 -2 -20 -14 9 -34 9 -75 2 -32 -6 -56 -7 -56 -2 0 11 -42 0 -50 -13
-3 -4 -37 -9 -75 -10 -71 -3 -125 -17 -125 -32 0 -4 -8 -3 -19 2 -10 6 -21 7
-25 4 -3 -3 -6 -1 -6 5 0 13 -27 12 -49 -2 -8 -5 -17 -3 -23 5 -7 11 -11 11
-15 2 -2 -7 -13 -13 -23 -13 -10 0 -22 -5 -25 -10 -4 -6 -10 -8 -15 -5 -5 3
-19 1 -30 -5 -11 -6 -26 -8 -33 -3 -21 13 -45 10 -40 -5 5 -11 1 -13 -15 -7
-14 4 -22 2 -22 -5 0 -7 -8 -9 -21 -5 -12 4 -33 1 -47 -6 -20 -11 -26 -11 -29
-1 -3 6 -11 12 -19 12 -8 0 -11 -6 -8 -15 8 -20 -10 -19 -26 0 -12 14 -15 13
-31 -4 -16 -17 -114 -38 -144 -30 -6 1 -23 -3 -40 -10 -27 -12 -70 -15 -132
-11 -25 2 -32 20 -8 20 17 0 20 16 5 25 -5 3 -10 3 -10 -2 0 -9 -48 -33 -66
-33 -6 0 -19 10 -28 23 l-17 22 5 -22 c2 -13 0 -23 -5 -23 -5 0 -9 10 -9 21 0
18 -3 19 -15 9 -8 -6 -18 -9 -24 -6 -5 3 -56 -3 -113 -14 -143 -29 -178 -33
-178 -20 0 5 -7 10 -16 10 -8 0 -13 -4 -10 -9 3 -4 -12 -3 -34 2 -21 6 -37 14
-34 19 3 4 0 8 -5 8 -6 0 -11 -4 -11 -10 0 -5 -5 -10 -11 -10 -5 0 -7 5 -4 10
3 6 2 10 -4 10 -5 0 -13 -5 -16 -10 -5 -8 -11 -7 -21 1 -8 7 -14 7 -14 1 0 -5
-9 -12 -21 -15 -12 -3 -18 -10 -14 -16 3 -6 -1 -11 -10 -11 -9 0 -40 -16 -69
-35 -29 -19 -60 -35 -69 -35 -9 0 -19 -5 -22 -10 -4 -6 -11 -8 -16 -5 -5 4 -9
2 -9 -3 0 -6 -29 -9 -65 -7 -36 1 -65 -2 -65 -7 0 -5 -4 -6 -10 -3 -5 3 -10 0
-10 -7 0 -11 -2 -11 -9 0 -4 7 -31 15 -60 17 -28 2 -61 7 -71 10 -11 4 -20 2
-20 -4 0 -7 -8 -7 -26 -1 -31 12 -44 13 -26 1 10 -6 9 -10 -7 -14 -12 -3 -21
-1 -21 4 0 5 -13 9 -30 9 -16 0 -30 -4 -30 -10 0 -5 -6 -7 -14 -4 -8 3 -17 1
-21 -5 -3 -6 -34 -11 -68 -12 -44 0 -56 -3 -42 -9 19 -8 19 -9 -2 -9 -12 -1
-29 6 -38 15 -9 9 -19 13 -23 9 -4 -4 -1 -10 6 -12 6 -3 12 -9 12 -14 0 -9
-51 -1 -60 10 -12 14 -29 10 -23 -6 5 -13 3 -15 -13 -9 -40 17 -54 18 -54 5 0
-10 -3 -10 -12 -1 -7 7 -20 12 -30 12 -10 0 -18 5 -18 10 0 6 -4 10 -10 10 -5
0 -7 -7 -3 -16 5 -14 3 -15 -15 -5 -11 6 -23 21 -25 33 -4 19 -4 19 -6 -5 0
-16 -5 -26 -11 -22 -6 4 -8 11 -5 16 10 14 -5 11 -22 -6 -10 -11 -19 -13 -27
-6 -7 6 -22 8 -34 4 -18 -4 -21 -2 -16 12 5 13 3 16 -7 13 -8 -3 -13 -10 -12
-16 1 -6 -12 -8 -35 -5 -20 3 -58 7 -84 10 l-48 5 0 -4597 c0 -4731 0 -4692
36 -4544 6 27 13 38 17 29 3 -9 6 -5 6 11 1 14 10 35 21 47 11 12 20 24 20 28
0 3 14 23 30 43 17 20 34 41 38 47 25 36 33 51 38 67 4 9 12 17 19 17 18 0 49
45 71 101 10 24 22 47 28 51 6 4 11 12 11 18 0 6 6 15 14 19 19 12 22 100 3
128 -7 12 -11 27 -8 32 4 5 -2 14 -11 20 -13 8 -14 10 -4 11 11 0 10 3 -3 13
-15 11 -17 24 -15 70 2 31 2 57 -1 57 -12 0 -9 54 2 62 9 5 13 35 14 90 0 46
4 92 8 103 15 38 16 46 4 39 -7 -5 -9 -2 -5 8 3 9 -3 24 -14 34 -21 19 -24 45
-8 76 9 17 8 24 -9 37 -11 9 -23 26 -27 39 -3 12 -10 22 -15 22 -5 0 -15 18
-21 40 -7 22 -16 40 -21 40 -4 0 -8 12 -8 28 0 15 -9 35 -20 45 -19 16 -25 34
-21 65 1 6 -2 12 -7 12 -27 0 -44 191 -20 216 4 4 3 13 -3 21 -9 10 -8 13 5
13 12 0 15 6 10 24 -3 13 -1 27 6 31 6 4 8 15 5 26 -4 11 -2 19 5 19 8 0 10 9
6 26 -4 15 -3 23 2 20 10 -6 25 71 19 95 -2 8 -2 11 0 7 10 -17 21 -6 27 27 4
19 11 35 16 35 6 0 10 11 10 24 0 14 4 27 9 30 5 4 5 23 -1 46 -7 28 -7 44 1
53 6 8 7 18 2 23 -4 5 -13 52 -20 104 -7 52 -20 108 -28 124 -11 20 -14 61
-14 148 1 66 4 124 7 129 3 5 7 22 10 37 11 66 15 77 25 61 8 -10 9 -8 4 10
-4 13 -2 26 4 30 10 6 28 79 35 141 2 14 7 33 11 42 5 13 3 18 -9 18 -9 0 -16
5 -16 10 0 6 6 10 13 10 6 0 -2 13 -19 28 -32 28 -64 81 -64 105 0 8 -7 20
-15 27 -8 7 -15 18 -14 24 4 34 -3 54 -20 59 -11 3 -27 22 -36 42 -31 75 -19
309 19 384 9 17 14 36 11 41 -3 6 1 10 9 10 9 0 18 12 22 28 3 15 17 56 32 91
17 43 22 66 15 68 -8 3 -6 11 4 23 9 10 17 29 19 42 12 130 22 180 34 173 6
-3 10 1 10 10 0 9 4 14 9 11 13 -8 20 28 9 47 -5 9 -16 14 -26 11 -13 -5 -14
-4 -3 4 9 7 11 16 6 28 -5 11 -8 22 -7 25 7 41 8 117 1 125 -6 8 -4 27 5 53
12 36 12 41 -2 41 -12 0 -12 4 4 21 10 12 17 31 16 44 -2 16 5 29 22 41 14 9
26 24 26 33 0 17 53 71 100 102 14 9 34 25 45 36 11 10 35 23 53 28 19 6 32
13 30 17 -5 12 41 40 56 35 8 -3 19 0 25 6 6 6 11 7 11 1 0 -5 4 -4 8 3 10 16
85 27 174 26 56 -2 80 2 88 12 9 11 35 15 96 15 46 0 84 4 84 8 0 12 96 52
125 52 14 0 58 9 97 20 86 24 184 26 212 5 11 -8 25 -15 30 -15 6 0 4 5 -4 10
-13 8 -13 10 1 10 9 0 28 -9 42 -20 14 -11 33 -20 44 -20 10 0 29 -12 42 -25
13 -14 29 -25 37 -25 7 0 18 -9 24 -20 6 -11 16 -17 25 -14 8 4 15 1 15 -6 0
-6 8 -9 18 -6 12 4 28 -4 47 -24 16 -16 34 -30 40 -30 7 0 20 -16 31 -35 10
-20 24 -33 30 -31 6 2 16 0 22 -6 7 -7 15 1 27 26 10 20 21 33 26 30 5 -3 9 0
9 6 0 16 53 80 66 80 5 0 19 6 29 14 18 13 18 14 -10 10 l-30 -5 33 15 c17 8
32 23 32 32 0 20 51 105 80 134 11 11 18 25 15 30 -4 6 2 13 12 17 10 3 40 28
66 55 26 26 52 48 57 48 5 0 17 10 27 22 10 13 25 24 33 26 8 2 22 10 31 18 8
8 20 14 26 14 6 0 16 7 23 15 7 8 22 15 34 15 12 0 26 4 31 8 9 8 52 19 173
42 29 5 73 10 98 10 31 0 43 4 38 11 -5 9 6 10 40 5 36 -6 53 -3 72 9 21 13
25 14 30 1 5 -12 9 -12 32 0 14 7 36 11 48 8 12 -3 31 -1 42 5 11 6 60 13 108
16 49 3 93 10 98 15 15 15 38 12 30 -2 -6 -10 -4 -10 7 0 7 6 32 12 54 12 23
0 45 3 49 7 3 4 17 8 29 10 34 4 144 20 217 33 36 6 74 11 85 11 11 1 34 5 50
10 32 9 204 14 245 6 14 -2 39 -7 55 -10 17 -4 46 -9 65 -11 71 -9 144 -29
189 -52 61 -30 104 -48 114 -46 4 1 7 -5 7 -13 0 -9 9 -15 23 -15 15 0 26 -9
35 -30 20 -44 110 -130 136 -130 15 0 27 9 34 26 7 14 16 22 22 19 5 -3 18 14
29 37 11 24 32 55 48 69 34 33 105 69 133 69 11 0 20 6 20 13 0 7 22 19 49 26
28 7 51 16 53 21 2 4 32 22 68 40 58 30 76 34 170 38 78 3 119 0 159 -12 30
-9 69 -16 86 -16 17 0 36 -5 43 -12 9 -9 12 -9 12 3 0 8 3 10 8 4 4 -6 51 -32
104 -58 94 -47 135 -84 124 -112 -2 -7 4 -22 15 -34 13 -14 15 -21 7 -21 -10
0 -9 -3 1 -9 12 -8 13 -37 7 -168 -4 -87 -11 -162 -17 -167 -5 -6 -9 -17 -9
-25 0 -27 -52 -120 -71 -126 -10 -3 -32 -27 -49 -53 -29 -43 -31 -52 -25 -102
6 -51 13 -63 50 -88 23 -16 57 -149 62 -243 6 -108 -16 -255 -48 -326 -10 -23
-19 -47 -19 -54 0 -6 -7 -9 -15 -5 -9 3 -15 0 -15 -10 0 -10 -6 -14 -15 -10
-9 3 -15 0 -15 -9 0 -8 -6 -12 -14 -9 -19 7 -44 -21 -51 -60 -4 -18 -2 -59 4
-91 10 -56 25 -80 43 -69 7 5 13 -28 9 -50 -1 -5 5 -6 13 -3 11 5 17 -3 21
-31 3 -20 13 -50 22 -67 22 -42 29 -197 13 -290 -7 -41 -16 -75 -19 -75 -4 0
-13 -16 -20 -35 -7 -19 -17 -35 -22 -35 -5 0 -9 -7 -9 -15 0 -8 -6 -15 -12
-15 -10 0 -10 -2 0 -9 11 -6 10 -10 -4 -15 -9 -3 -14 -9 -11 -12 3 -3 -5 -16
-19 -28 -41 -35 -58 -152 -30 -204 8 -15 27 -56 43 -92 15 -36 30 -67 33 -70
7 -6 10 -42 13 -145 2 -92 -17 -171 -45 -186 -11 -6 -24 -24 -30 -39 -5 -16
-18 -32 -29 -35 -10 -3 -28 -24 -41 -46 -16 -30 -28 -39 -48 -39 -26 0 -90
-49 -90 -69 0 -6 -11 -13 -25 -17 -14 -3 -25 -10 -25 -15 0 -17 -43 -47 -76
-54 -19 -3 -34 -9 -34 -13 0 -4 -22 -15 -50 -25 -27 -10 -50 -22 -50 -26 0
-12 -60 -32 -71 -25 -5 3 -9 -1 -9 -8 0 -15 -102 -18 -132 -4 -9 4 -22 9 -30
10 -7 1 -23 8 -35 14 -21 12 -27 9 -24 -11 4 -24 -18 8 -24 33 -4 20 -13 30
-25 30 -9 0 -23 7 -30 15 -7 8 -18 15 -26 15 -7 0 -18 9 -24 21 -9 16 -14 18
-25 9 -11 -9 -16 -7 -24 9 -6 11 -11 28 -11 38 0 15 -2 16 -10 3 -11 -18 -21
-10 -23 19 -1 11 -7 21 -14 21 -12 0 -17 13 -14 33 0 4 -6 7 -15 7 -8 0 -12 5
-9 10 3 6 -1 10 -9 10 -14 0 -21 18 -17 43 0 4 -5 7 -13 7 -8 0 -21 3 -30 6
-12 5 -16 0 -16 -19 0 -14 -5 -29 -10 -32 -6 -3 -10 -17 -10 -30 0 -13 -5 -27
-10 -30 -6 -3 -10 -15 -10 -26 0 -11 -5 -30 -12 -42 -6 -12 -12 -31 -13 -42
-4 -46 -18 -95 -27 -95 -6 0 -8 -7 -4 -15 3 -9 -4 -21 -18 -31 -13 -8 -27 -25
-30 -37 -7 -30 -127 -151 -165 -167 -17 -7 -31 -18 -31 -24 0 -6 -9 -16 -19
-21 -126 -66 -232 -115 -245 -115 -10 0 -30 -7 -46 -15 -17 -9 -40 -13 -54 -9
-18 4 -27 1 -36 -15 -9 -17 -20 -21 -65 -21 -29 0 -57 -5 -60 -10 -3 -6 -15
-10 -26 -10 -10 0 -19 -4 -19 -9 0 -4 -18 -11 -41 -14 -23 -3 -51 -14 -62 -24
-12 -11 -33 -20 -47 -21 -13 -1 -29 -8 -35 -16 -8 -10 -16 -12 -29 -4 -14 8
-21 7 -28 -6 -5 -9 -22 -16 -37 -16 -15 0 -31 -3 -35 -7 -7 -8 -12 -9 -55 -11
-16 -2 -21 -6 -17 -17 4 -12 -4 -15 -40 -15 -25 0 -53 -4 -63 -9 -9 -5 -35
-12 -57 -15 -192 -27 -282 -36 -429 -42 -93 -3 -174 -10 -180 -14 -5 -5 -28
-2 -50 6 -48 17 -55 17 -35 3 12 -8 10 -9 -10 -5 -14 3 -38 6 -55 7 -22 0 -25
2 -12 7 17 7 -22 24 -111 47 -12 4 -20 11 -16 16 3 5 -9 12 -27 16 -17 3 -34
13 -36 22 -3 9 -23 31 -45 48 -22 18 -37 33 -33 33 5 0 -9 17 -30 37 -25 24
-42 53 -50 82 -13 52 -26 60 -54 32 -12 -12 -21 -18 -21 -14 0 4 -6 -1 -13
-12 -10 -12 -16 -14 -21 -7 -14 22 -52 12 -89 -24 -20 -20 -37 -39 -37 -43 0
-4 -20 -20 -45 -35 -24 -16 -42 -33 -38 -39 3 -6 1 -7 -5 -3 -6 3 -32 -16 -58
-44 -26 -27 -53 -50 -60 -50 -14 0 -49 -34 -49 -48 0 -13 -39 -52 -52 -52 -6
0 -15 -9 -18 -21 -4 -11 -21 -34 -38 -50 -17 -16 -31 -37 -32 -47 0 -9 -4 -23
-9 -30 -4 -7 -2 -12 6 -12 11 0 11 -2 0 -9 -14 -8 2 -67 38 -144 10 -21 26
-68 36 -106 16 -60 16 -77 5 -137 -7 -38 -13 -85 -14 -104 -4 -58 11 -158 27
-183 9 -12 17 -32 19 -42 2 -11 11 -34 20 -52 9 -18 17 -38 17 -45 0 -7 16
-32 35 -56 18 -24 44 -64 56 -90 13 -26 26 -49 29 -52 4 -3 10 -18 14 -34 4
-15 13 -34 20 -41 13 -14 31 -149 21 -165 -3 -5 -8 -30 -11 -57 -3 -26 -10
-49 -15 -51 -5 -2 -9 -12 -9 -22 0 -10 -6 -30 -14 -45 -8 -15 -12 -34 -9 -41
3 -8 1 -14 -5 -14 -6 0 -9 -25 -9 -60 1 -33 6 -60 10 -60 8 0 -31 -60 -47 -71
-5 -4 -6 -19 -4 -33 4 -18 1 -26 -8 -26 -8 0 -14 -4 -14 -10 0 -5 7 -10 15
-10 8 0 15 -4 15 -10 0 -5 -4 -10 -8 -10 -10 0 0 -79 11 -97 4 -6 3 -14 -2
-17 -5 -3 -1 -37 10 -77 10 -39 19 -95 20 -125 1 -30 6 -54 11 -54 5 0 1 -11
-7 -24 -13 -19 -13 -25 -3 -29 8 -4 9 -8 3 -14 -5 -4 -10 -12 -11 -18 -3 -29
-18 -55 -31 -55 -10 0 -13 -6 -9 -17 4 -10 4 -15 1 -11 -3 3 -23 -9 -43 -28
-20 -19 -43 -34 -51 -34 -19 0 -60 -46 -67 -76 -3 -13 -10 -27 -15 -30 -5 -3
-9 -13 -9 -22 0 -9 -7 -30 -15 -46 -20 -38 -20 -86 0 -86 10 0 15 -10 15 -29
0 -16 6 -31 15 -35 8 -3 15 -16 15 -28 1 -26 24 -61 33 -51 4 3 7 -6 7 -20 0
-17 5 -27 15 -27 9 0 12 -6 9 -15 -4 -9 8 -29 30 -51 31 -31 40 -35 67 -29 27
6 31 5 26 -9 -4 -10 -1 -16 8 -16 8 0 13 -9 12 -20 -1 -11 -6 -20 -12 -20 -5
0 -3 -4 5 -9 8 -6 18 -7 22 -5 9 6 -1 -25 -13 -41 -4 -5 -8 -14 -8 -20 -1 -5
-7 -10 -15 -10 -16 0 -54 -46 -81 -97 -10 -20 -29 -42 -41 -48 -12 -7 -21 -17
-20 -24 0 -6 -3 -12 -7 -13 -16 -4 -57 -74 -57 -96 0 -12 -11 -35 -25 -51 -14
-16 -25 -32 -25 -36 0 -4 -10 -20 -22 -35 -12 -15 -23 -37 -25 -49 -1 -11 -5
-40 -9 -63 l-6 -43 235 0 234 0 7 37 c3 21 6 77 6 126 0 48 3 87 8 87 4 0 7
61 6 136 0 74 4 137 8 140 4 3 8 12 8 20 0 8 -4 13 -9 10 -4 -3 -5 13 -1 34 4
22 4 43 0 45 -10 6 -1 185 11 206 4 9 9 45 10 80 1 35 8 78 15 94 8 17 18 54
24 84 6 30 17 65 25 77 8 13 12 30 9 39 -4 10 -2 15 7 13 8 -2 15 7 17 20 2
12 8 22 15 22 6 0 52 43 103 95 51 52 100 95 108 95 9 0 16 5 16 11 0 5 4 7
10 4 5 -3 10 -2 10 4 0 10 101 46 195 68 33 8 76 18 95 23 19 5 49 12 65 15
17 4 59 15 95 25 36 11 77 21 92 24 15 4 33 12 40 19 7 7 28 14 47 15 19 1 46
9 60 16 47 26 207 72 241 71 8 0 18 4 22 10 5 6 8 4 8 -5 0 -13 2 -13 9 -1 5
8 20 15 33 16 12 1 31 5 41 10 9 4 24 4 33 1 9 -4 23 -1 30 5 8 6 57 12 114
12 55 1 100 5 100 9 0 5 11 6 24 2 14 -3 66 0 117 6 127 17 261 20 278 6 7 -6
29 -12 48 -13 19 -1 47 -10 61 -20 15 -9 34 -18 42 -20 31 -6 91 -30 91 -36
-1 -4 -1 -15 0 -24 0 -15 2 -15 9 2 8 19 9 19 9 -3 1 -13 5 -21 10 -17 5 3 22
-6 37 -20 14 -13 32 -22 38 -18 6 4 5 -1 -3 -10 -13 -17 -6 -23 22 -18 4 0 7
-6 7 -14 0 -8 4 -15 8 -15 35 0 39 -275 8 -505 -15 -116 -25 -239 -28 -342 0
-34 -5 -60 -9 -57 -13 7 -6 -89 6 -98 6 -5 6 -8 -1 -8 -7 0 -11 -36 -12 -100
-1 -55 -6 -109 -12 -119 -5 -11 -10 -31 -10 -44 0 -14 -11 -57 -24 -96 -13
-38 -22 -72 -20 -74 3 -2 -2 -10 -11 -17 -8 -7 -15 -20 -15 -30 0 -10 -7 -20
-15 -24 -8 -3 -15 -13 -15 -21 0 -17 -28 -50 -41 -50 -4 0 -11 -3 -15 -7 -4
-5 996 -8 2223 -8 l2230 0 7 61 c3 34 6 99 6 145 0 83 11 239 30 444 5 58 17
233 25 390 9 157 20 310 26 340 6 30 12 80 14 110 8 103 16 172 24 193 13 34
22 279 12 314 -6 21 -6 35 0 39 7 4 6 10 0 18 -5 6 -12 34 -14 61 -3 28 -10
64 -17 80 -7 17 -14 51 -15 76 -1 25 -5 51 -9 58 -8 12 32 52 77 76 15 9 27
21 27 29 0 7 11 18 24 26 14 7 27 23 30 36 7 28 38 39 67 24 16 -9 32 -9 64
-1 24 6 60 11 80 11 20 0 45 4 55 10 25 13 387 106 508 130 54 10 109 23 123
28 14 6 52 13 85 17 32 4 64 10 69 13 6 4 15 7 20 7 6 0 35 6 65 12 30 7 96
20 145 29 50 9 99 20 110 24 29 11 239 60 259 60 9 0 38 6 64 14 26 7 79 21
117 30 39 8 122 27 185 42 63 14 131 30 150 35 19 4 76 18 125 29 50 12 117
28 150 36 33 9 76 18 95 20 19 3 46 9 60 13 14 5 52 14 85 21 33 7 69 16 80
21 23 10 207 56 275 69 25 5 81 18 125 29 44 11 88 21 97 21 10 0 55 17 100
39 92 42 338 128 396 137 20 3 67 10 104 14 37 5 76 14 88 20 12 6 51 15 88
19 67 9 319 58 332 66 3 2 49 13 101 24 304 66 319 71 396 147 36 35 72 64 79
64 8 0 14 6 15 13 0 6 4 2 10 -11 5 -13 14 -20 20 -17 6 4 13 -1 15 -12 5 -19
32 -23 67 -8 20 8 58 2 135 -22 52 -16 58 -15 140 5 48 12 108 24 135 28 26 3
47 9 47 13 0 7 26 13 165 41 22 4 76 18 120 30 44 12 132 33 195 46 63 14 133
29 155 34 22 5 90 20 150 33 61 14 157 37 215 52 58 15 130 31 160 35 73 10
164 28 225 45 147 41 274 74 305 80 19 3 78 17 130 30 99 25 243 58 345 80 33
7 122 29 199 49 76 20 142 33 147 30 5 -3 9 -2 9 3 0 4 10 9 23 10 35 2 189
33 217 42 41 14 302 82 385 100 28 6 106 24 175 41 69 16 235 55 370 85 135
31 292 67 350 81 205 49 306 72 425 99 66 14 156 35 200 45 44 11 141 33 215
50 74 17 149 35 165 40 17 5 91 23 165 40 74 17 153 35 175 40 92 22 383 90
425 99 121 27 939 218 1115 261 110 26 232 55 270 64 39 8 138 32 220 51 83
20 283 68 445 106 162 39 356 86 430 104 74 18 194 47 265 63 301 70 380 90
795 193 337 83 939 235 1125 283 125 33 1296 318 1480 361 61 14 166 39 235
56 69 16 184 43 255 60 72 17 159 39 195 49 36 10 92 26 125 35 97 26 103 30
117 77 18 62 29 71 66 52 17 -8 33 -22 36 -30 9 -23 103 -12 278 32 75 19 152
34 171 34 19 0 56 7 83 15 27 8 94 24 148 35 55 11 104 24 110 29 6 4 49 18
96 31 47 12 108 29 135 36 28 8 100 25 160 39 61 14 146 34 190 45 256 63 596
139 645 145 8 1 33 7 55 12 22 6 67 16 100 23 33 7 108 24 168 38 l107 25 0
6154 0 6153 -9755 0 -9754 0 7 -52 c18 -132 -3 -1256 -24 -1289 -3 -5 -1 -9 4
-9 9 0 -19 -169 -35 -210 -6 -14 -8 -30 -6 -37 2 -6 -1 -14 -6 -18 -6 -3 -11
-20 -11 -36 0 -17 -6 -32 -14 -35 -8 -3 -13 -11 -10 -18 3 -7 -2 -26 -11 -42
-8 -16 -15 -24 -15 -19 0 6 -6 -1 -13 -15 -7 -13 -23 -27 -37 -30 -16 -4 -21
-8 -13 -13 16 -10 -5 -47 -25 -47 -7 0 -15 -7 -19 -16 -3 -8 -12 -13 -19 -10
-8 3 -14 -1 -14 -9 0 -7 -5 -17 -10 -20 -6 -4 -10 -3 -9 2 4 22 -3 23 -18 4
-11 -13 -33 -24 -57 -27 -34 -4 -37 -3 -26 11 7 9 9 19 5 23 -4 4 -10 1 -12
-5 -5 -15 -83 -18 -83 -4 0 5 -9 13 -20 16 -24 8 -90 75 -90 93 0 6 -3 12 -8
12 -6 0 -33 50 -38 70 0 3 -8 22 -18 43 -9 21 -14 42 -11 47 4 6 3 16 -2 23
-13 21 -15 39 -20 197 -4 128 0 190 21 355 14 110 28 237 32 283 4 51 10 78
15 70 5 -7 9 23 9 72 0 59 3 80 10 70 7 -11 10 5 10 51 0 36 5 92 11 125 7 32
13 66 14 74 10 77 19 117 27 127 5 7 7 21 3 33 -5 16 -2 20 17 21 l23 0 -25
11 -25 11 25 6 c21 6 22 8 8 14 -16 6 -16 9 -3 41 8 20 15 40 15 46 0 7 -1529
10 -4870 10 l-4870 0 0 -3809z m29390 1974 c12 -15 7 -45 -7 -45 -21 1 -35 19
-28 39 8 25 18 27 35 6z m210 -16 c0 -25 -26 -25 -33 0 -6 24 0 31 19 24 8 -3
14 -14 14 -24z m-622 15 c28 -8 28 -28 0 -48 -19 -14 -24 -14 -36 -2 -9 8 -11
22 -7 35 7 23 9 24 43 15z m202 -4 c11 -7 12 -14 4 -27 -15 -24 -33 -28 -40
-9 -7 18 1 46 13 46 4 0 15 -5 23 -10z m-393 -17 c4 -10 -2 -23 -16 -35 -29
-22 -41 -16 -41 23 0 24 4 29 25 29 15 0 28 -7 32 -17z m-267 -286 c0 -13 -8
-32 -19 -41 -17 -15 -19 -15 -25 -1 -10 27 4 65 25 65 13 0 19 -7 19 -23z
m-770 -37 c-14 -4 -41 -8 -61 -9 -38 -1 -60 -14 -77 -46 -8 -14 -11 -15 -11
-5 -1 19 29 56 49 62 8 3 40 5 70 6 41 0 49 -2 30 -8z m83 3 c-7 -2 -19 -2
-25 0 -7 3 -2 5 12 5 14 0 19 -2 13 -5z m436 -240 c13 -24 -14 -75 -37 -71
-28 6 -10 88 19 88 4 0 12 -8 18 -17z m-21256 -68 c-3 -9 -8 -14 -10 -11 -3 3
-2 9 2 15 9 16 15 13 8 -4z m57 0 c0 -8 -4 -15 -10 -15 -5 0 -10 7 -10 15 0 8
5 15 10 15 6 0 10 -7 10 -15z m40 -5 c0 -5 -5 -10 -11 -10 -5 0 -7 5 -4 10 3
6 8 10 11 10 2 0 4 -4 4 -10z m20361 -23 c-10 -9 -11 -8 -5 6 3 10 9 15 12 12
3 -3 0 -11 -7 -18z m-20365 -24 c13 -17 13 -17 14 0 0 18 30 25 30 6 0 -8 5
-8 15 1 12 10 15 10 15 -2 0 -8 11 -27 25 -42 26 -28 33 -42 15 -31 -5 3 -10
1 -10 -4 0 -6 8 -11 18 -11 15 0 15 -2 2 -10 -13 -9 -13 -12 4 -25 10 -7 15
-18 11 -24 -3 -6 1 -11 9 -11 18 0 22 -35 6 -45 -5 -3 -10 -2 -10 3 0 5 -10 8
-22 6 -13 -1 -27 -3 -32 -3 -4 -1 -6 -8 -3 -16 4 -8 2 -17 -3 -20 -6 -4 -10 1
-10 9 0 21 -19 20 -42 -1 -21 -19 -24 -6 -4 20 7 9 23 17 35 17 11 0 21 5 21
11 0 7 -13 10 -34 7 -24 -3 -32 0 -29 9 3 7 -2 15 -10 19 -9 3 -13 12 -11 19
5 11 -34 43 -43 37 -9 -6 -23 0 -23 9 0 5 8 9 18 7 11 -2 18 2 18 7 -1 6 -9
10 -19 9 -11 0 -14 3 -8 9 6 6 6 19 1 33 -9 21 -7 24 17 24 14 0 32 -8 39 -17z
m20310 -89 c-4 -9 -9 -15 -11 -12 -3 3 -3 13 1 22 4 9 9 15 11 12 3 -3 3 -13
-1 -22z m-20126 -119 c-7 -9 -15 -13 -17 -11 -7 7 7 26 19 26 6 0 6 -6 -2 -15z
m-40 -14 c0 -4 -8 -7 -18 -8 -10 -1 -19 4 -19 11 0 8 8 11 19 8 10 -2 18 -7
18 -11z m20091 -4 c-10 -9 -11 -8 -5 6 3 10 9 15 12 12 3 -3 0 -11 -7 -18z
m-20171 -7 c0 -5 -5 -10 -11 -10 -5 0 -7 5 -4 10 3 6 8 10 11 10 2 0 4 -4 4
-10z m17110 -171 c0 -16 -4 -17 -26 -9 -14 6 -70 10 -125 10 -150 0 -127 25
36 39 86 7 115 -3 115 -40z m3696 -53 c3 -8 0 -24 -6 -36 -9 -17 -14 -19 -26
-9 -15 12 -19 41 -7 52 11 12 33 8 39 -7z m-216 -25 c0 -29 -14 -42 -37 -34
-14 5 -18 45 -6 56 3 4 15 7 25 7 13 0 18 -8 18 -29z m-215 -10 c0 -13 -8 -29
-18 -35 -15 -9 -21 -7 -32 8 -12 15 -19 17 -37 10 -30 -13 -68 -6 -68 12 0 10
13 14 48 14 26 0 54 5 62 10 24 16 45 7 45 -19z m345 20 c0 -13 -27 -21 -45
-15 -8 4 -12 10 -9 15 7 12 54 12 54 0z m-560 -24 c0 -29 -18 -47 -46 -47 -18
0 -26 -10 -39 -50 -9 -27 -21 -52 -26 -55 -5 -4 -9 -16 -10 -28 l0 -22 -9 22
c-6 15 -15 21 -25 17 -22 -9 -19 10 6 32 26 24 65 90 73 127 5 23 11 27 41 27
30 0 35 -3 35 -23z m358 11 c-5 -14 -61 -23 -85 -14 -27 11 -2 26 43 26 32 0
44 -4 42 -12z m-4168 -272 c0 -2 3 -12 6 -21 6 -13 1 -16 -22 -13 -38 4 -47
38 -10 38 14 0 26 -2 26 -4z m3546 -50 c-7 -27 -53 -47 -65 -28 -3 5 -17 12
-31 13 -35 5 -31 22 7 30 17 3 39 14 49 23 15 15 19 16 32 3 9 -10 12 -24 8
-41z m-231 0 c0 -18 -8 -34 -21 -42 -18 -13 -23 -12 -44 6 -13 11 -32 20 -44
20 -17 0 -18 2 -6 10 8 5 25 10 36 10 12 0 27 7 34 15 20 25 45 14 45 -19z
m-220 4 c14 -44 -53 -96 -69 -55 -3 8 -17 15 -31 15 -14 0 -25 5 -25 10 0 6
11 10 24 10 13 0 34 9 47 20 31 25 46 25 54 0z m-231 -14 c8 -34 -2 -54 -36
-72 -17 -9 -41 -28 -53 -42 -36 -42 -41 -18 -6 26 17 22 31 43 31 47 0 12 41
65 50 65 4 0 11 -11 14 -24z m-2674 -125 c0 -6 -4 -13 -10 -16 -5 -3 -10 1
-10 9 0 9 5 16 10 16 6 0 10 -4 10 -9z m-30 -36 c0 -8 -2 -15 -4 -15 -2 0 -6
7 -10 15 -3 8 -1 15 4 15 6 0 10 -7 10 -15z m3437 -27 c-3 -8 -6 -5 -6 6 -1
11 2 17 5 13 3 -3 4 -12 1 -19z m-957 -73 c0 -17 -85 -115 -100 -115 -23 0
-31 31 -15 59 15 29 115 77 115 56z m927 -27 c-3 -8 -6 -5 -6 6 -1 11 2 17 5
13 3 -3 4 -12 1 -19z m-1191 -23 c4 -8 13 -15 22 -15 13 0 11 -6 -9 -24 -76
-71 -127 -57 -79 22 21 34 56 43 66 17z m1167 -75 c-7 -25 -23 -37 -23 -16 0
23 11 46 20 41 5 -3 6 -14 3 -25z m-1363 -138 c0 -4 -13 -23 -28 -42 -16 -19
-40 -56 -55 -82 -30 -52 -51 -61 -60 -26 -8 29 6 52 48 78 19 12 44 35 56 51
19 27 39 38 39 21z m1301 -69 c-10 -17 -10 -16 -11 3 0 23 13 41 18 25 2 -6
-1 -18 -7 -28z m-471 2 c-10 -12 -10 -15 4 -15 9 0 16 -4 16 -10 0 -5 -13 -10
-29 -10 -23 0 -42 -15 -97 -74 -38 -41 -93 -104 -122 -140 -36 -45 -60 -66
-75 -66 -12 0 -65 -5 -117 -10 -88 -8 -96 -7 -113 11 -24 25 -20 26 133 38
l124 10 45 48 c25 26 65 72 90 103 77 95 114 130 134 130 16 0 17 -3 7 -15z
m-1139 -41 c9 -8 31 -16 48 -16 40 -1 35 -20 -8 -29 -18 -4 -48 -15 -67 -25
-36 -20 -38 -19 -48 13 -5 17 -1 29 18 48 29 29 34 30 57 9z m449 -9 c0 -8 5
-15 10 -15 22 0 8 -16 -22 -25 -30 -9 -41 -26 -120 -180 -48 -93 -109 -215
-136 -270 -27 -55 -56 -106 -64 -113 -9 -7 -64 -17 -124 -22 -62 -6 -113 -15
-120 -22 -7 -7 -42 -71 -79 -143 -164 -324 -212 -410 -228 -413 -13 -3 -17 4
-17 27 0 20 5 31 14 31 21 0 57 52 105 150 105 217 209 404 229 411 11 4 64
11 117 15 93 7 97 8 119 38 12 17 31 50 41 74 10 23 22 42 27 42 4 0 8 5 8 11
0 6 28 65 62 132 34 67 73 145 86 172 39 80 63 115 78 115 8 0 14 -7 14 -15z
m-3480 -50 c12 7 12 -51 1 -80 -7 -18 -8 -17 -14 5 -3 14 -8 50 -11 80 -5 48
-4 51 4 22 6 -18 15 -30 20 -27z m4210 45 c0 -5 -7 -10 -15 -10 -8 0 -15 5
-15 10 0 6 7 10 15 10 8 0 15 -4 15 -10z m-4213 -22 c-3 -8 -6 -5 -6 6 -1 11
2 17 5 13 3 -3 4 -12 1 -19z m3518 -28 c-3 -5 -13 -10 -21 -10 -8 0 -14 5 -14
10 0 6 9 10 21 10 11 0 17 -4 14 -10z m730 0 c-3 -5 -11 -10 -16 -10 -6 0 -7
5 -4 10 3 6 11 10 16 10 6 0 7 -4 4 -10z m-708 -26 c-3 -3 -12 -4 -19 -1 -8 3
-5 6 6 6 11 1 17 -2 13 -5z m733 2 c0 -3 -4 -8 -10 -11 -5 -3 -10 -1 -10 4 0
6 5 11 10 11 6 0 10 -2 10 -4z m-715 -26 c-3 -5 -11 -10 -16 -10 -6 0 -7 5 -4
10 3 6 11 10 16 10 6 0 7 -4 4 -10z m732 -6 c-3 -3 -12 -4 -19 -1 -8 3 -5 6 6
6 11 1 17 -2 13 -5z m-712 -24 c-3 -5 -14 -10 -23 -10 -15 0 -15 2 -2 10 20
13 33 13 25 0z m1015 -2 c0 -7 -9 -27 -19 -44 -17 -28 -25 -31 -87 -37 -101
-10 -156 -9 -149 3 3 6 -2 10 -11 10 -12 0 -15 3 -8 10 6 6 48 13 95 16 127 8
147 12 154 34 7 22 25 27 25 8z m-1731 -45 c-57 -67 -83 -93 -91 -93 -17 0 -6
21 32 62 22 24 40 46 40 51 0 4 10 7 22 7 l21 0 -24 -27z m736 17 c-3 -5 -13
-10 -21 -10 -8 0 -12 5 -9 10 3 6 13 10 21 10 8 0 12 -4 9 -10z m725 0 c0 -5
-5 -10 -11 -10 -5 0 -7 5 -4 10 3 6 8 10 11 10 2 0 4 -4 4 -10z m-700 -24 c0
-2 -7 -6 -15 -10 -8 -3 -15 -1 -15 4 0 6 7 10 15 10 8 0 15 -2 15 -4z m15 -26
c-3 -5 -11 -10 -16 -10 -6 0 -7 5 -4 10 3 6 11 10 16 10 6 0 7 -4 4 -10z
m-885 -89 c0 -22 -20 -59 -35 -65 -22 -8 -58 12 -51 30 8 21 -7 17 -22 -6 -16
-27 -109 -29 -119 -3 -6 14 -7 14 -14 -3 -3 -11 -19 -26 -33 -33 -33 -18 -51
-4 -43 32 7 26 52 53 62 37 7 -12 172 -2 195 11 20 11 60 11 60 0z m-340 -123
c-1 -13 -50 -55 -50 -43 0 3 7 17 16 30 17 27 34 33 34 13z m-70 -72 c0 -2 -8
-10 -17 -17 -16 -13 -17 -12 -4 4 13 16 21 21 21 13z m-126 -107 c29 -17 49
-20 126 -18 50 1 92 0 94 -2 2 -2 6 -14 8 -27 3 -22 0 -23 -71 -28 -41 -2 -93
-9 -115 -14 -64 -15 -172 -12 -185 4 -10 11 -7 17 11 30 12 9 30 16 40 16 9 0
25 14 35 30 9 17 18 30 20 30 1 0 18 -9 37 -21z m-237 -55 c3 -8 0 -26 -7 -40
-12 -21 -20 -24 -70 -24 -41 0 -61 5 -71 16 -11 14 -10 18 6 27 57 34 133 45
142 21z m-251 -31 c6 -20 2 -31 -16 -45 -24 -20 -55 -24 -65 -8 -3 6 -19 10
-36 10 -42 0 -36 22 14 47 61 31 95 30 103 -4z m-258 -5 c18 -18 15 -42 -7
-62 -15 -14 -29 -16 -65 -11 -68 11 -76 28 -24 58 48 28 78 33 96 15z m-259
-24 c22 -29 16 -55 -17 -73 -17 -9 -103 7 -118 22 -10 10 26 47 45 47 9 0 25
7 35 15 27 20 31 19 55 -11z m-269 -19 c0 -9 7 -18 15 -21 36 -14 1 -64 -45
-64 -37 0 -47 28 -25 70 16 32 55 42 55 15z m1609 -295 c0 -23 -15 7 -22 45
l-6 30 14 -30 c8 -16 14 -37 14 -45z m-1858 -7 c22 -57 -41 -120 -95 -95 -31
14 -24 52 16 92 37 38 65 39 79 3z m-255 -35 c7 -5 14 -21 17 -35 6 -35 -26
-62 -73 -63 -40 0 -57 9 -60 30 -4 26 -1 37 20 63 17 22 26 25 53 20 18 -3 37
-10 43 -15z m2137 -38 c3 -11 1 -18 -4 -14 -5 3 -9 12 -9 20 0 20 7 17 13 -6z
m-3259 -203 c-1 -9 4 -13 12 -10 8 3 14 -1 14 -9 0 -38 -31 -23 -45 21 -5 17
-4 22 6 19 8 -3 13 -12 13 -21z m192 -404 c-2 -3 -11 1 -19 8 -12 12 -12 17 2
39 l16 24 3 -33 c2 -18 1 -35 -2 -38z m554 -10 c21 -35 21 -38 4 -50 -10 -7
-32 -13 -50 -13 -38 0 -48 22 -28 69 18 43 46 41 74 -6z m-290 -13 c0 -11 7
-23 15 -26 32 -13 3 -54 -38 -54 -31 0 -36 13 -23 62 11 42 46 55 46 18z
m-340 -656 c0 -17 6 -24 19 -24 11 0 22 -4 25 -9 9 -13 -45 -29 -74 -21 -21 5
-25 12 -23 38 1 42 21 66 39 51 8 -6 14 -22 14 -35z m-388 8 c3 -4 8 -29 10
-57 3 -45 1 -50 -19 -53 -13 -2 -23 -8 -23 -13 0 -5 -9 -9 -20 -9 -12 0 -39
-9 -61 -21 -23 -11 -43 -18 -45 -16 -3 2 -9 18 -14 35 -6 25 -4 36 10 54 10
13 24 39 33 59 15 35 15 36 68 32 30 -3 57 -8 61 -11z m108 -39 c0 -12 5 -23
12 -25 21 -7 -3 -28 -33 -28 -25 0 -29 4 -29 28 0 37 29 80 41 61 5 -8 9 -24
9 -36z m107 20 c-4 -3 -2 -12 3 -19 14 -15 -13 -44 -41 -44 -29 0 -21 41 11
57 28 14 37 16 27 6z m-15187 -713 c0 -5 -5 -10 -11 -10 -5 0 -7 5 -4 10 3 6
8 10 11 10 2 0 4 -4 4 -10z m-4892 -305 c-3 -3 -9 2 -12 12 -6 14 -5 15 5 6 7
-7 10 -15 7 -18z m79 19 c-3 -3 -12 -4 -19 -1 -8 3 -5 6 6 6 11 1 17 -2 13 -5z
m-107 -8 c0 -3 -4 -8 -10 -11 -5 -3 -10 -1 -10 4 0 6 5 11 10 11 6 0 10 -2 10
-4z m19330 -251 c0 -8 -4 -15 -10 -15 -15 0 -12 -77 3 -83 6 -3 2 -6 -9 -6
-36 -2 -48 22 -33 66 15 48 49 74 49 38z m-20030 -535 c0 -5 -4 -10 -10 -10
-5 0 -10 5 -10 10 0 6 5 10 10 10 6 0 10 -4 10 -10z m157 -22 c-3 -8 -6 -5 -6
6 -1 11 2 17 5 13 3 -3 4 -12 1 -19z m19620 -150 c-3 -7 -5 -2 -5 12 0 14 2
19 5 13 2 -7 2 -19 0 -25z m7511 -256 c2 -7 -3 -12 -12 -12 -9 0 -16 7 -16 16
0 17 22 14 28 -4z m-63 -2 c3 -5 2 -10 -4 -10 -5 0 -13 5 -16 10 -3 6 -2 10 4
10 5 0 13 -4 16 -10z m-151 -6 c9 -3 16 -14 16 -24 0 -15 -11 -20 -46 -26 -26
-4 -50 -2 -55 3 -16 16 1 42 29 46 15 2 30 5 34 6 3 0 13 -2 22 -5z m-184 -49
c0 -26 -12 -32 -80 -37 -29 -3 -35 0 -35 17 0 14 11 24 35 32 58 20 80 17 80
-12z m-7224 -40 c-8 -31 -28 -33 -24 -2 3 21 18 40 26 32 3 -2 2 -16 -2 -30z
m7018 12 c16 -27 -17 -47 -76 -47 -40 0 -48 3 -48 19 0 24 18 38 55 44 45 6
57 4 69 -16z m-206 -44 c-2 -21 -10 -29 -37 -35 -53 -14 -96 -7 -96 17 0 26
39 45 93 45 41 0 43 -1 40 -27z m-213 -33 c0 -22 -6 -27 -57 -39 -32 -7 -65
-11 -73 -7 -18 6 -20 42 -3 52 19 12 71 22 103 21 25 -2 30 -6 30 -27z m-210
-35 c0 -29 -2 -30 -69 -42 -56 -10 -71 -10 -78 0 -20 32 -3 51 62 65 70 16 85
12 85 -23z m-210 -15 c16 -25 -7 -49 -56 -59 -80 -17 -99 -15 -99 13 0 30 16
43 60 49 66 8 89 7 95 -3z m-218 -36 c10 -28 -11 -48 -63 -61 -82 -19 -104
-17 -104 11 0 32 15 42 80 54 78 14 80 14 87 -4z m-6051 -110 c-4 -14 -11 -22
-16 -19 -9 5 -8 13 6 53 9 25 17 -3 10 -34z m-256 -19 c0 -25 5 -45 11 -45 5
0 8 4 4 9 -3 5 -1 12 4 15 5 3 8 19 7 36 -2 23 2 30 16 30 19 0 25 -25 8 -35
-6 -4 -9 -23 -7 -43 2 -32 -1 -40 -27 -55 -28 -18 -29 -18 -48 1 -23 22 -26
73 -8 107 22 41 40 31 40 -20z m6090 -12 c-1 -19 -5 -25 -60 -91 -38 -46 -50
-52 -50 -23 0 20 86 131 101 131 5 0 9 -8 9 -17z m-162 -209 c2 -11 -4 -26
-12 -33 -18 -16 -152 -26 -160 -13 -14 23 9 42 67 56 79 19 101 17 105 -10z
m-6027 -21 c-12 -20 -14 -14 -5 12 4 9 9 14 11 11 3 -2 0 -13 -6 -23z m5797
-16 c4 -33 -15 -43 -100 -52 -64 -7 -68 -6 -68 13 0 26 11 33 85 53 74 20 79
19 83 -14z m-220 -27 c6 -33 -23 -51 -96 -62 -39 -7 -75 -9 -78 -5 -4 3 -4 17
0 31 5 21 14 26 54 31 26 3 56 10 67 15 27 12 49 8 53 -10z m-248 -50 c0 -36
-16 -45 -97 -54 -58 -6 -63 -5 -63 12 0 26 17 39 65 47 22 4 47 11 55 16 28
16 40 10 40 -21z m-212 -33 c4 -22 -137 -177 -161 -177 -15 0 -16 3 -6 23 7
12 36 51 66 87 29 36 58 71 64 78 14 16 33 11 37 -11z m-6411 -12 c52 -16 99
-59 110 -103 7 -30 -13 -109 -38 -143 -10 -15 -19 -32 -19 -38 0 -6 -4 -11
-10 -11 -5 0 -10 -4 -10 -9 0 -26 -48 -80 -79 -89 -32 -10 -37 -9 -65 19 -17
17 -43 37 -58 45 -30 16 -48 64 -48 129 0 66 15 100 68 153 68 68 73 70 149
47z m6156 -282 c6 -28 -21 -72 -47 -79 -13 -3 -38 -4 -57 -2 -26 2 -34 8 -34
22 0 10 7 22 15 26 8 3 33 16 55 28 49 26 62 27 68 5z m-239 -49 c9 -25 7 -33
-14 -54 -23 -23 -98 -28 -118 -8 -14 14 11 48 37 48 9 0 25 7 35 15 26 20 52
19 60 -1z m-236 -37 c16 -19 4 -53 -24 -66 -14 -6 -45 -11 -70 -11 -41 0 -45
2 -42 22 2 15 14 26 33 33 17 5 36 16 43 22 17 17 47 16 60 0z m-235 -48 c8
-13 6 -24 -6 -43 -16 -23 -24 -26 -78 -26 -56 0 -60 1 -57 22 2 14 14 25 35
32 18 6 38 17 45 24 16 16 48 12 61 -9z m-248 -33 c17 -12 18 -17 7 -40 -14
-32 -50 -47 -100 -43 -29 2 -38 7 -40 24 -3 18 7 27 45 46 59 30 64 31 88 13z
m-240 -42 c9 -9 14 -23 11 -31 -3 -8 -6 -18 -6 -22 0 -30 -133 -43 -144 -15
-7 17 9 44 26 44 5 0 21 9 35 20 31 24 56 25 78 4z m-251 -40 c21 -8 20 -47
-1 -67 -18 -15 -49 -20 -106 -18 -43 2 -33 39 18 68 41 23 62 27 89 17z
m-17254 -23 c0 -5 20 -12 44 -15 24 -4 52 -13 62 -21 20 -15 38 -20 31 -7 -3
4 10 8 28 9 19 2 37 -2 40 -7 3 -6 19 -10 34 -10 16 0 45 -7 65 -15 20 -9 41
-13 45 -10 5 2 14 -2 21 -11 11 -12 15 -12 21 -2 7 10 9 9 9 -4 0 -10 6 -18
14 -18 8 0 17 -15 20 -35 4 -19 11 -35 16 -35 13 0 23 -38 14 -52 -5 -7 -7
-25 -6 -39 2 -15 -4 -48 -12 -75 -8 -27 -17 -96 -20 -154 -5 -109 -11 -140
-28 -140 -6 0 -7 -7 -4 -16 3 -8 2 -13 -3 -10 -5 3 -11 -3 -14 -14 -3 -11 -12
-20 -21 -20 -19 0 -21 -16 -3 -23 6 -3 0 -6 -15 -6 -15 -1 -29 -5 -32 -10 -3
-5 -15 -11 -27 -14 -15 -4 -19 -2 -15 9 3 8 3 14 1 14 -12 0 -55 -24 -55 -32
0 -4 -9 -8 -21 -8 -15 0 -19 5 -15 15 3 8 2 15 -3 15 -5 0 -11 -9 -14 -20 -3
-12 -14 -20 -25 -20 -11 0 -29 -11 -40 -24 -10 -14 -31 -28 -45 -32 -15 -3
-27 -10 -27 -15 0 -16 -43 -31 -99 -35 -80 -6 -81 -6 -81 -18 0 -6 -5 -4 -11
4 -8 11 -12 12 -16 3 -3 -9 -10 -10 -24 -3 -11 6 -19 7 -19 1 0 -16 -47 -21
-76 -7 -16 8 -44 13 -61 12 -19 -2 -33 2 -33 8 0 7 -10 12 -23 14 -36 2 -94
29 -100 46 -4 9 -14 12 -26 9 -26 -7 -83 27 -76 45 3 9 0 12 -9 9 -10 -4 -13
-1 -9 9 4 10 0 12 -13 8 -11 -4 -16 -4 -12 1 4 4 1 20 -7 35 -8 15 -12 30 -9
33 3 3 -3 15 -13 26 -10 12 -23 52 -29 91 -9 62 -9 74 7 99 10 16 15 32 12 35
-4 3 -2 6 4 6 15 0 33 55 33 101 0 22 4 39 10 39 5 0 15 18 21 41 10 31 17 39
31 36 11 -3 18 0 18 10 0 8 4 12 9 9 5 -3 12 5 15 19 4 14 14 26 24 27 9 0 22
2 27 3 6 2 18 3 28 4 9 0 17 8 17 17 0 8 5 12 10 9 6 -4 8 -11 5 -16 -13 -19
12 -8 33 16 12 14 30 25 40 25 10 0 24 9 31 19 8 11 20 17 28 14 7 -3 13 -1
13 5 0 10 37 25 58 23 6 -1 12 3 12 10 0 8 4 8 15 -1 9 -8 15 -8 15 -2 0 13
31 17 133 20 42 1 77 -2 77 -7z m17016 -25 c18 -14 18 -16 2 -43 -20 -34 -75
-51 -116 -37 -43 15 -35 45 18 71 53 26 70 28 96 9z m-244 -50 c11 -16 10 -21
-13 -50 -16 -21 -29 -26 -64 -26 -56 0 -75 8 -75 31 0 25 86 70 120 62 14 -3
28 -11 32 -17z m-254 -60 c6 -52 -72 -86 -129 -56 -50 27 17 92 91 87 31 -2
35 -6 38 -31z m-2954 -18 c-14 -46 -25 -71 -29 -67 -7 8 17 89 27 89 5 0 6
-10 2 -22z m2696 -8 c15 -29 4 -58 -30 -75 -35 -18 -51 -19 -84 -4 -35 16 -39
35 -13 60 45 43 109 52 127 19z m-252 -52 c17 -37 -1 -65 -50 -80 -30 -9 -43
-8 -72 6 -20 9 -36 19 -36 21 0 20 28 55 53 68 47 24 89 18 105 -15z m-262
-55 c6 -31 3 -39 -16 -55 -33 -27 -91 -24 -119 6 l-23 25 33 30 c26 24 43 31
76 31 41 0 42 -1 49 -37z m-2189 7 c3 -11 9 -20 14 -20 17 0 9 -21 -16 -46
-14 -14 -29 -42 -33 -62 -6 -26 -14 -38 -27 -40 -34 -4 -49 14 -49 56 0 30 9
50 38 86 41 49 65 58 73 26z m1927 -52 c8 -33 7 -39 -15 -57 -32 -27 -83 -27
-110 0 -42 42 14 101 91 96 20 -2 27 -9 34 -39z m-2094 -67 l0 -59 -57 -46
c-60 -48 -90 -57 -100 -31 -7 19 -72 48 -91 40 -8 -3 -11 -12 -7 -24 4 -15 1
-19 -12 -17 -9 2 -19 8 -21 14 -2 7 -9 9 -14 6 -7 -5 -8 -2 -4 5 5 7 1 17 -8
24 -21 15 -25 99 -7 121 18 21 26 20 50 -5 15 -16 18 -30 13 -61 -4 -30 -2
-39 6 -34 7 4 12 18 12 32 0 13 5 24 10 24 6 0 10 9 10 19 0 20 18 31 51 31
14 0 19 -7 19 -28 0 -44 18 -55 52 -31 15 11 28 26 28 32 0 12 46 46 63 47 4
0 7 -27 7 -59z m1820 39 c20 -37 8 -73 -29 -92 -30 -15 -37 -15 -61 -3 -15 8
-30 11 -34 8 -16 -16 -4 32 15 59 35 48 91 63 109 28z m-1965 -240 c3 -5 1
-10 -4 -10 -6 0 -11 5 -11 10 0 6 2 10 4 10 3 0 8 -4 11 -10z m1696 -60 c15 0
10 -31 -11 -65 -17 -27 -28 -33 -68 -38 -26 -3 -51 -2 -55 3 -17 15 6 54 62
107 l56 54 3 -30 c2 -17 7 -31 13 -31z m-263 -72 c7 -7 12 -28 12 -48 0 -43
-15 -60 -52 -60 -41 0 -108 23 -108 37 0 28 16 47 54 64 48 22 77 24 94 7z
m-266 -75 c3 -21 3 -46 0 -56 -6 -24 -49 -33 -86 -18 -17 7 -37 13 -44 15 -28
5 -35 24 -19 49 16 25 63 44 113 46 29 1 32 -2 36 -36z m-281 -10 c0 -5 2 -28
5 -53 5 -58 -3 -70 -52 -71 -82 -3 -139 28 -118 64 23 37 162 88 165 60z
m-275 -74 c1 -14 4 -37 8 -52 5 -21 1 -30 -18 -42 -35 -23 -70 -16 -74 15 -2
14 -12 33 -23 43 -18 17 -19 17 -20 -5 -1 -13 -1 -26 0 -30 2 -15 -30 -8 -36
8 -13 35 77 95 137 91 19 -2 25 -8 26 -28z m-277 -79 c0 -67 -1 -70 -25 -76
-14 -4 -44 -1 -65 5 -22 7 -48 9 -58 6 -13 -4 -20 1 -25 17 -10 37 -7 58 8 58
8 0 16 7 19 15 6 14 85 43 124 44 20 1 21 -4 22 -69z m1836 16 c21 -21 23 -31
21 -108 -2 -99 -22 -142 -79 -173 -35 -19 -37 -19 -70 -2 -51 27 -71 69 -64
132 14 137 121 221 192 151z m-2112 -63 c3 -38 1 -72 -3 -77 -10 -10 -60 -11
-90 -1 -15 5 -19 12 -15 26 9 27 -3 43 -21 28 -17 -14 -19 -12 -28 18 -11 34
48 71 115 72 l36 1 6 -67z m-5925 -35 c72 -18 117 -52 141 -108 12 -27 21 -58
21 -69 0 -43 -55 -181 -72 -181 -4 0 -14 -13 -23 -29 -17 -34 -86 -61 -159
-64 -36 -2 -51 4 -84 31 -23 17 -45 32 -50 32 -22 0 -45 77 -48 160 -5 115 16
158 101 205 65 37 101 41 173 23z m618 -71 c4 -4 18 -7 31 -7 13 0 26 -6 29
-14 3 -8 11 -13 19 -10 7 3 19 -2 28 -10 9 -9 19 -16 24 -16 14 0 63 -97 63
-125 0 -14 -8 -50 -17 -78 -41 -128 -115 -185 -236 -181 -32 2 -126 44 -127
57 0 5 -10 23 -22 40 -18 26 -23 45 -23 97 1 113 47 202 129 244 29 15 89 17
102 3z m4059 -62 c5 -16 29 -49 53 -72 23 -24 42 -47 42 -52 0 -5 -7 -25 -16
-46 -8 -20 -14 -38 -12 -39 30 -21 83 -46 97 -46 16 0 18 -9 16 -80 -3 -73 -5
-81 -31 -104 -16 -14 -46 -30 -66 -36 -43 -12 -82 -45 -92 -77 -10 -31 -17
-29 -48 17 -25 35 -30 39 -51 29 -12 -6 -29 -25 -37 -42 -16 -36 -126 -147
-168 -168 -36 -18 -72 -56 -72 -76 0 -32 -41 -63 -83 -63 -21 0 -53 -6 -70
-14 -120 -54 -215 -90 -241 -91 -47 -3 -88 -16 -115 -37 -13 -10 -30 -18 -37
-18 -14 0 -64 -49 -64 -63 0 -20 -43 -68 -56 -63 -9 3 -14 -2 -14 -14 0 -10
-5 -22 -12 -26 -7 -4 -8 -3 -4 4 4 7 3 12 -1 12 -14 0 -33 -38 -27 -55 9 -23
-4 -49 -19 -37 -6 5 -42 13 -79 17 -38 4 -68 12 -68 17 0 6 -7 5 -15 -2 -10
-8 -12 -17 -6 -24 14 -16 1 -32 -32 -40 -22 -5 -28 -4 -25 6 3 7 9 13 14 13
17 0 34 16 28 26 -3 6 -12 5 -21 -3 -8 -6 -22 -13 -30 -14 -16 -3 -53 -38 -53
-51 0 -5 -9 -13 -19 -18 -11 -6 -36 -23 -57 -40 -33 -27 -45 -30 -103 -29 -36
0 -79 4 -96 7 -23 6 -25 5 -10 -2 19 -9 19 -10 -3 -10 -12 -1 -42 -19 -65 -40
-23 -22 -56 -43 -71 -47 -28 -7 -29 -6 -23 25 4 17 11 37 17 44 19 22 80 119
80 126 0 11 38 40 44 33 3 -3 28 18 55 47 27 28 52 51 57 50 10 -3 69 7 134
22 25 5 79 14 120 19 41 6 90 12 108 14 28 4 31 2 21 -10 -9 -11 -8 -14 5 -14
9 0 16 6 16 13 0 7 13 13 30 13 36 2 100 31 100 45 0 6 5 9 12 7 19 -7 48 30
48 60 0 21 11 38 44 67 25 21 52 55 62 76 9 21 20 36 24 34 4 -3 13 2 20 10 7
8 17 15 23 15 6 0 28 19 48 41 37 41 39 42 176 68 176 34 193 46 260 183 29
60 53 96 60 93 7 -2 12 -1 12 3 -4 24 4 44 26 69 16 17 25 22 24 13 -1 -8 -1
-24 0 -35 2 -19 3 -19 18 3 8 12 24 22 34 22 15 0 19 8 20 38 0 28 2 32 8 17
8 -19 8 -19 19 1 7 12 7 26 1 35 -5 8 -9 9 -9 3 0 -7 -8 -11 -17 -10 -10 0
-19 -9 -23 -23 -8 -34 -30 -39 -31 -7 -1 14 -3 31 -4 36 -1 6 -3 19 -4 30 -1
14 -8 20 -26 20 -14 0 -25 4 -25 9 0 5 -7 12 -16 15 -8 3 -13 2 -10 -2 7 -12
-10 -35 -22 -29 -12 8 -3 57 10 57 6 0 8 10 5 21 -4 13 1 28 10 38 15 15 15
16 0 19 -22 4 -22 42 -1 42 10 0 14 -5 10 -16 -3 -8 -2 -12 4 -9 6 3 10 12 10
20 0 18 25 26 39 12 6 -6 11 -23 11 -39 0 -21 -4 -26 -16 -21 -10 4 -17 -1
-21 -16 -3 -11 -9 -18 -14 -15 -5 3 -9 1 -9 -4 0 -6 7 -12 15 -16 11 -4 15 1
15 19 0 18 4 23 16 18 9 -3 11 -9 6 -12 -5 -3 -11 -23 -14 -43 -3 -32 -1 -38
15 -38 17 0 18 2 6 17 -12 15 -12 16 3 11 10 -4 18 0 22 10 3 9 14 29 23 43
10 15 29 45 43 68 13 23 34 44 47 47 13 4 23 10 23 16 0 5 12 8 27 6 20 -2 30
-11 38 -33z m915 -35 c0 -5 -5 -10 -11 -10 -5 0 -7 5 -4 10 3 6 8 10 11 10 2
0 4 -4 4 -10z m6646 -1 c3 -6 35 -109 69 -229 66 -231 80 -259 174 -365 25
-28 80 -95 121 -149 41 -55 93 -120 116 -145 23 -25 80 -94 127 -153 65 -81
82 -108 68 -108 -19 0 -79 64 -206 220 -38 47 -99 119 -135 160 -37 41 -93
106 -125 144 -32 38 -66 77 -75 86 -17 17 -73 182 -106 310 -22 87 -52 152
-67 148 -6 -2 -73 -124 -147 -270 -141 -278 -126 -255 -343 -520 -27 -33 -54
-57 -60 -55 -6 2 -45 104 -85 228 -40 123 -79 230 -86 237 -14 14 -13 14 -466
-82 -118 -25 -278 -58 -355 -75 -77 -16 -185 -39 -240 -51 -55 -11 -131 -27
-170 -35 -38 -8 -101 -21 -140 -30 -38 -9 -104 -23 -145 -31 -41 -9 -85 -22
-97 -30 -17 -11 -52 -106 -168 -461 -81 -247 -165 -503 -187 -570 -24 -74 -46
-124 -55 -128 -30 -11 -28 -25 -63 345 -27 286 -61 608 -65 628 -11 47 -27 34
-170 -142 -43 -54 -90 -103 -104 -110 -14 -8 -73 -24 -131 -36 -58 -12 -150
-33 -205 -46 -55 -13 -123 -24 -151 -24 l-52 0 -82 90 c-97 107 -118 113 -170
53 -18 -21 -57 -65 -86 -98 -29 -33 -74 -86 -101 -117 -26 -31 -95 -112 -153
-179 -58 -67 -121 -141 -140 -164 -19 -23 -75 -88 -125 -144 -49 -56 -111
-128 -137 -159 -100 -121 -96 -117 -197 -141 -95 -22 -167 -27 -188 -13 -7 4
-104 98 -215 208 -112 110 -217 206 -235 213 -26 11 -46 10 -115 -3 -93 -17
-258 -54 -411 -90 -151 -36 -233 -49 -275 -42 -20 3 -45 6 -54 7 -10 0 -44 25
-75 55 -31 30 -59 54 -62 54 -3 0 -19 13 -36 29 -33 32 -143 65 -167 50 -18
-11 -157 -10 -164 2 -3 5 -21 9 -40 9 -26 0 -45 9 -78 40 -23 22 -72 61 -109
88 -113 82 -284 249 -302 295 -21 53 -12 95 26 125 25 20 30 21 35 8 3 -9 16
-16 28 -16 14 0 32 -16 55 -50 19 -28 38 -50 43 -50 4 0 15 -15 24 -32 9 -18
33 -46 54 -63 21 -16 36 -33 33 -37 -2 -5 2 -8 9 -8 8 0 21 -8 29 -17 9 -10
35 -35 58 -56 22 -21 38 -43 35 -48 -3 -5 -2 -9 3 -8 27 5 35 -1 23 -16 -10
-12 -10 -15 3 -15 9 0 14 -6 12 -12 -8 -19 57 -23 265 -17 72 2 140 -14 140
-33 0 -5 4 -8 8 -8 5 0 40 -30 77 -66 38 -37 83 -73 101 -80 59 -25 59 -25
549 75 299 62 293 62 400 -41 38 -37 70 -68 72 -68 4 0 163 -164 163 -169 0
-2 28 -31 62 -63 56 -52 66 -58 105 -58 48 0 176 26 208 43 22 11 42 32 191
208 186 217 439 512 565 658 160 186 153 185 282 46 l91 -97 65 5 c76 5 406
74 438 91 12 6 48 43 80 82 156 189 196 234 209 234 23 0 31 -35 49 -220 33
-346 73 -712 78 -717 12 -11 43 78 217 617 126 392 134 412 161 432 21 15 363
89 1124 244 94 19 186 38 205 43 96 25 311 63 325 57 15 -5 43 -59 50 -95 2
-9 22 -77 45 -151 23 -74 46 -149 51 -167 19 -63 22 -61 147 87 98 116 140
185 278 460 137 274 149 292 170 259z m-6782 -128 c8 -13 -10 -101 -23 -114
-7 -7 -12 -5 -17 9 -3 10 -8 26 -12 34 -8 21 -3 42 15 63 18 19 29 22 37 8z
m-300 -111 c2 -60 -7 -73 -32 -48 -19 19 -15 95 5 107 10 5 20 8 22 5 2 -2 5
-31 5 -64z m146 38 c5 -15 9 -17 10 -8 1 8 6 -1 10 -20 10 -42 8 -45 -19 -31
-25 14 -44 48 -37 67 8 21 25 17 36 -8z m-1160 -164 c0 -8 -9 -14 -20 -14 -22
0 -26 10 -8 28 13 13 28 7 28 -14z m537 -186 c-3 -8 -6 -5 -6 6 -1 11 2 17 5
13 3 -3 4 -12 1 -19z m-997 -156 c8 -4 16 -12 17 -18 3 -15 -63 -95 -72 -86
-4 4 -4 -3 -1 -15 6 -18 2 -24 -18 -29 -14 -3 -26 -10 -26 -15 0 -5 -9 -9 -19
-9 -11 0 -26 -7 -35 -15 -8 -8 -22 -15 -32 -15 -13 0 -14 -3 -4 -15 15 -17 10
-18 -23 -6 -19 8 -27 6 -31 -5 -4 -10 -13 -13 -32 -8 -20 5 -25 4 -20 -5 5 -7
0 -21 -10 -32 -14 -16 -25 -18 -64 -13 -31 4 -50 2 -54 -5 -4 -6 0 -11 11 -12
11 0 13 -3 5 -6 -7 -3 -20 1 -28 8 -12 10 -17 10 -23 0 -5 -7 -24 -13 -43 -14
-18 -1 -46 -12 -62 -24 -38 -30 -67 -38 -77 -22 -12 20 -11 53 2 66 6 6 8 16
5 22 -12 18 -38 12 -43 -10 -4 -14 -11 -18 -22 -14 -9 4 -28 9 -43 12 -16 3
-28 11 -28 17 0 6 -5 4 -10 -4 -6 -9 -10 -10 -10 -3 0 7 -10 23 -22 36 -13 13
-30 34 -39 46 -10 13 -29 24 -43 25 -35 4 -42 13 -17 21 14 4 18 11 14 23 -5
15 -3 14 16 -2 19 -18 21 -18 15 -2 -6 16 -5 16 32 1 38 -16 93 -12 105 7 16
25 173 18 224 -11 28 -15 51 -9 85 24 46 45 124 59 155 29 13 -13 20 -15 23
-6 2 6 13 12 23 12 12 0 17 4 13 11 -4 8 6 9 37 5 31 -4 38 -3 24 3 -11 5 -14
10 -7 10 7 1 30 12 50 26 36 24 72 30 102 17z m-966 -219 c-4 -16 -13 -39 -20
-53 -7 -14 -15 -33 -18 -43 -8 -24 -54 -41 -72 -26 -8 6 -14 20 -14 31 0 25
60 98 82 98 9 0 20 5 23 10 13 21 25 9 19 -17z m10471 -252 c-8 -8 -45 32 -45
48 1 11 8 7 25 -14 13 -16 22 -31 20 -34z m-10420 -21 c-3 -5 -13 -10 -21 -10
-8 0 -12 5 -9 10 3 6 13 10 21 10 8 0 12 -4 9 -10z m10528 -80 c9 -11 29 -20
44 -21 27 -1 27 -1 -5 -10 -38 -11 -67 1 -75 31 -7 26 13 26 36 0z m-11149
-16 c14 -5 13 -9 -6 -26 -17 -15 -19 -21 -9 -27 10 -7 11 -13 2 -27 -6 -11
-11 -13 -11 -6 0 17 -30 15 -30 -3 0 -9 -6 -12 -15 -9 -9 4 -15 0 -15 -10 0
-9 -8 -16 -19 -16 -14 0 -19 -7 -17 -25 0 -14 4 -25 9 -25 4 0 7 -4 7 -9 0
-11 -56 -32 -63 -24 -10 9 5 33 20 33 8 0 11 5 7 12 -5 7 -15 2 -31 -18 -21
-27 -23 -28 -23 -7 0 12 5 25 11 28 6 4 8 13 5 20 -2 7 -2 16 2 20 4 4 7 12 7
18 0 7 10 16 23 22 12 5 22 18 22 27 0 10 3 17 8 16 12 -2 40 9 99 41 1 1 9
-2 17 -5z m-134 -223 c0 -5 -7 -11 -14 -14 -10 -4 -13 -1 -9 9 6 15 23 19 23
5z m90 -12 c0 -6 -9 -8 -20 -4 -11 4 -20 2 -20 -4 0 -6 8 -11 17 -11 14 0 14
-3 5 -12 -10 -10 -15 -10 -21 1 -5 8 -14 10 -21 6 -9 -6 -11 -4 -5 5 4 7 2 15
-4 19 -7 4 6 8 29 9 22 1 40 -3 40 -9z m20 -19 c0 -5 -4 -10 -10 -10 -5 0 -10
5 -10 10 0 6 5 10 10 10 6 0 10 -4 10 -10z m-250 -159 c0 -5 9 -12 19 -16 30
-9 33 -45 8 -95 -22 -45 -47 -64 -47 -35 0 8 4 15 9 15 5 0 12 7 15 16 3 9 2
12 -5 9 -20 -13 -49 26 -49 65 0 20 3 40 7 43 10 10 43 8 43 -2z m-360 -413
c10 -23 16 -46 13 -50 -2 -5 1 -15 7 -23 6 -8 9 -22 6 -32 -7 -24 -16 -69 -23
-118 -3 -22 -9 -45 -14 -50 -9 -12 -4 -159 6 -175 3 -5 1 -10 -5 -10 -7 0 -10
-7 -6 -15 3 -8 1 -15 -4 -15 -6 0 -10 -6 -10 -14 0 -21 -22 -25 -74 -13 -30 7
-45 15 -42 23 3 7 -2 18 -10 24 -8 7 -14 18 -14 25 0 25 -57 28 -95 6 -36 -21
-53 15 -28 62 10 20 14 45 10 75 -3 28 -2 39 4 31 8 -13 5 39 -6 114 -5 29 -4
29 40 -10 38 -35 96 9 116 89 14 54 65 118 95 118 8 0 23 -19 34 -42z m726
-739 c18 -15 -56 -79 -96 -84 -22 -3 -29 -1 -23 8 4 7 7 20 8 30 0 34 84 68
111 46z m-959 -184 l32 -7 -25 -39 c-13 -21 -24 -43 -24 -48 0 -5 -11 -19 -25
-32 -13 -13 -25 -32 -25 -41 0 -10 -7 -18 -15 -18 -9 0 -21 -11 -27 -25 -6
-14 -15 -25 -19 -25 -5 0 -6 -7 -3 -15 5 -11 2 -13 -10 -9 -9 3 -22 1 -30 -5
-7 -6 -21 -8 -30 -5 -11 4 -26 -2 -41 -16 -21 -20 -25 -21 -31 -7 -3 8 -12 18
-21 21 -11 4 -13 2 -9 -9 10 -27 -9 -16 -27 16 -10 18 -20 29 -24 25 -10 -10
-32 14 -26 30 6 17 -10 18 -40 3 -21 -10 -21 -10 -3 5 17 14 15 20 -6 18 -10
-2 -6 71 5 85 5 7 31 19 57 27 26 8 56 19 66 24 26 14 219 58 247 56 12 0 36
-4 54 -9z m-655 -159 c4 -6 2 -16 -4 -23 -8 -10 -5 -13 13 -13 24 -1 24 -1 -3
-18 -16 -9 -28 -26 -28 -37 0 -16 -2 -17 -10 -5 -8 12 -10 12 -16 -3 -3 -9
-10 -17 -16 -17 -14 0 -38 -26 -31 -34 3 -3 12 -1 20 5 8 7 13 8 13 1 0 -5 -7
-12 -15 -16 -8 -3 -12 -12 -9 -21 5 -11 2 -14 -10 -9 -12 4 -16 0 -16 -15 0
-12 4 -21 10 -21 19 0 -19 -65 -42 -71 -37 -9 -48 0 -48 41 0 67 12 99 51 140
22 22 39 48 39 58 0 37 13 61 34 65 35 6 61 3 68 -7z m70 -63 c-19 -7 -4 -23
16 -16 15 6 15 5 4 -10 -8 -9 -11 -21 -7 -27 3 -5 0 -10 -7 -11 -10 0 -10 -2
0 -6 6 -2 12 -11 12 -19 0 -8 -6 -11 -15 -8 -8 4 -15 1 -15 -5 0 -6 9 -11 20
-11 18 0 19 -3 10 -20 -6 -11 -7 -20 -1 -20 13 0 21 25 15 47 -4 13 0 19 15
20 12 1 21 -3 21 -8 0 -6 -5 -7 -12 -3 -8 5 -9 2 -5 -9 13 -34 -10 -64 -59
-81 -26 -9 -60 -16 -74 -16 -27 0 -27 1 -17 40 10 34 14 39 34 34 14 -4 23 -2
23 5 0 6 -5 10 -12 9 -7 -2 -12 10 -14 28 -1 25 4 34 24 43 13 7 22 15 18 18
-8 8 13 33 28 32 7 0 6 -2 -2 -6z m85 -25 c-3 -8 -6 -5 -6 6 -1 11 2 17 5 13
3 -3 4 -12 1 -19z m-56 -41 c-10 -9 -11 -8 -5 6 3 10 9 15 12 12 3 -3 0 -11
-7 -18z m-568 -67 c3 -11 1 -20 -4 -20 -5 0 -9 -7 -9 -16 0 -14 -3 -14 -15 -4
-10 9 -15 9 -15 1 0 -6 -4 -11 -10 -11 -17 0 -11 27 12 53 25 28 33 27 41 -3z
m417 5 c0 -8 5 -15 10 -15 6 0 10 -4 10 -9 0 -5 -8 -8 -17 -7 -19 3 -32 46
-14 46 6 0 11 -7 11 -15z m210 1 c0 -2 -8 -10 -17 -17 -16 -13 -17 -12 -4 4
13 16 21 21 21 13z m-14163 -228 c-3 -8 -6 -5 -6 6 -1 11 2 17 5 13 3 -3 4
-12 1 -19z m4878 -2992 c11 -7 36 -16 55 -19 79 -13 99 -20 94 -29 -4 -6 1 -8
14 -4 13 4 42 -4 80 -24 33 -16 63 -30 67 -30 16 0 95 -85 95 -102 0 -9 8 -19
18 -22 33 -11 52 -70 52 -161 0 -84 -16 -174 -34 -186 -5 -4 -5 -12 -2 -18 4
-6 0 -14 -8 -17 -8 -3 -18 -15 -22 -27 -8 -26 -38 -67 -80 -112 -27 -29 -31
-43 -41 -125 l-10 -92 48 -73 c62 -94 84 -167 75 -254 -5 -48 -12 -68 -27 -79
-10 -7 -28 -30 -38 -50 -10 -20 -32 -49 -47 -63 -16 -15 -38 -38 -49 -52 -11
-15 -26 -26 -32 -27 -7 0 -13 -4 -13 -10 0 -5 -9 -10 -20 -10 -11 0 -20 -6
-20 -14 0 -7 -13 -19 -30 -26 -16 -7 -30 -17 -30 -22 0 -13 -26 -38 -39 -38
-6 0 -11 -4 -11 -8 0 -12 -80 -43 -91 -36 -11 7 -60 -26 -54 -36 3 -5 -7 -18
-21 -29 -21 -16 -41 -21 -90 -21 -59 0 -64 2 -65 23 -1 21 -1 21 -9 -3 -4 -14
-8 -19 -9 -12 -1 6 -8 12 -16 12 -8 0 -15 6 -15 14 0 8 -12 24 -27 36 -16 12
-33 31 -40 43 -10 18 -12 19 -13 5 0 -14 -7 -11 -30 14 -16 17 -30 25 -30 18
0 -10 -5 -9 -17 3 -10 9 -29 27 -43 39 -36 33 -69 83 -86 129 -11 33 -12 60
-4 138 10 92 37 201 51 201 3 0 9 28 13 63 3 34 13 80 21 102 22 62 19 197 -5
242 -11 21 -20 43 -20 50 0 6 -7 19 -16 28 -26 25 -21 172 8 244 24 61 46 93
59 86 4 -3 9 9 11 27 2 18 8 33 15 33 13 0 53 43 53 57 0 5 4 7 8 4 5 -3 16 3
24 13 9 11 22 23 30 27 8 5 27 26 42 47 16 20 35 37 42 37 8 0 14 9 14 20 0
13 7 20 19 20 11 0 27 8 37 17 46 47 166 69 209 39z m-1115 -166 c0 -5 -5 -10
-11 -10 -5 0 -7 5 -4 10 3 6 8 10 11 10 2 0 4 -4 4 -10z"/>
<path d="M7077 17203 c3 -10 12 -26 19 -37 7 -10 10 -25 7 -32 -6 -17 9 -18
24 -3 14 14 6 39 -12 39 -7 0 -16 11 -19 25 -4 14 -11 25 -16 25 -5 0 -7 -8
-3 -17z"/>
<path d="M7150 17170 c8 -5 20 -10 25 -10 6 0 3 5 -5 10 -8 5 -19 10 -25 10
-5 0 -3 -5 5 -10z"/>
<path d="M7175 17140 c-3 -5 1 -10 10 -10 9 0 13 5 10 10 -3 6 -8 10 -10 10
-2 0 -7 -4 -10 -10z"/>
<path d="M7170 17099 c0 -5 5 -7 10 -4 6 3 10 8 10 11 0 2 -4 4 -10 4 -5 0
-10 -5 -10 -11z"/>
<path d="M7200 17086 c0 -8 -6 -16 -12 -18 -7 -3 -2 -7 10 -10 17 -5 22 -2 22
12 0 11 -4 22 -10 25 -5 3 -10 0 -10 -9z"/>
<path d="M6398 9743 c6 -2 18 -2 25 0 6 3 1 5 -13 5 -14 0 -19 -2 -12 -5z"/>
<path d="M19180 6980 c0 -5 5 -10 11 -10 5 0 7 5 4 10 -3 6 -8 10 -11 10 -2 0
-4 -4 -4 -10z"/>
<path d="M14210 5280 c0 -5 7 -10 16 -10 8 0 12 5 9 10 -3 6 -10 10 -16 10 -5
0 -9 -4 -9 -10z"/>
<path d="M4530 12479 c0 -5 5 -7 10 -4 6 3 10 8 10 11 0 2 -4 4 -10 4 -5 0
-10 -5 -10 -11z"/>
<path d="M3780 12340 c0 -5 5 -10 10 -10 6 0 10 5 10 10 0 6 -4 10 -10 10 -5
0 -10 -4 -10 -10z"/>
<path d="M2890 12300 c-9 -6 -10 -10 -3 -10 6 0 15 5 18 10 8 12 4 12 -15 0z"/>
<path d="M2208 11703 c7 -3 16 -2 19 1 4 3 -2 6 -13 5 -11 0 -14 -3 -6 -6z"/>
<path d="M0 11590 c0 -5 5 -10 11 -10 5 0 7 5 4 10 -3 6 -8 10 -11 10 -2 0 -4
-4 -4 -10z"/>
<path d="M398 11543 c7 -3 16 -2 19 1 4 3 -2 6 -13 5 -11 0 -14 -3 -6 -6z"/>
<path d="M4772 7442 c-20 -19 -29 -37 -26 -47 3 -8 2 -15 -4 -15 -5 0 -10 -10
-9 -22 0 -13 -3 -68 -8 -123 -13 -145 -10 -195 11 -195 17 0 74 61 74 80 0 13
1 13 10 0 8 -12 10 -13 10 -1 0 8 7 23 16 33 38 41 31 239 -10 272 -7 6 -18
19 -23 30 -9 17 -12 16 -41 -12z"/>
<path d="M618 7403 c7 -3 16 -2 19 1 4 3 -2 6 -13 5 -11 0 -14 -3 -6 -6z"/>
<path d="M29720 7249 c0 -5 -5 -7 -10 -4 -6 3 -13 0 -16 -8 -3 -9 -13 -13 -27
-9 -20 5 -20 6 -1 13 11 4 13 8 5 8 -20 1 -91 -31 -91 -41 0 -4 -4 -8 -10 -8
-5 0 -7 8 -4 18 4 12 3 13 -3 5 -5 -7 -22 -15 -39 -17 -58 -8 -159 -39 -166
-50 -4 -7 -26 -13 -49 -14 -53 -2 -111 -17 -168 -43 -24 -11 -50 -18 -57 -15
-8 3 -14 -1 -14 -10 0 -13 -2 -13 -17 2 -16 16 -18 15 -27 -5 -10 -24 -29 -29
-20 -6 4 8 1 15 -5 15 -6 0 -11 -6 -11 -13 0 -8 -6 -14 -12 -15 -7 -1 -27 -3
-44 -5 -17 -2 -35 -6 -41 -10 -10 -6 -79 -18 -115 -20 -10 -1 -18 -4 -18 -8 0
-7 -78 -25 -92 -21 -5 1 -8 -2 -8 -6 0 -5 -19 -9 -42 -10 -23 -1 -49 -8 -57
-16 -11 -10 -32 -12 -68 -9 -44 5 -52 3 -56 -13 -4 -18 -5 -18 -6 -1 0 10 -6
15 -11 12 -6 -4 -8 -11 -5 -16 7 -10 2 -11 -58 -13 -21 -1 -42 -8 -46 -15 -5
-8 -31 -15 -62 -17 -94 -5 -173 -14 -204 -23 -16 -5 -48 -12 -70 -16 -22 -4
-83 -20 -135 -37 -93 -29 -106 -34 -163 -57 -16 -6 -32 -9 -37 -6 -5 3 -11 1
-15 -5 -3 -5 -14 -10 -24 -10 -10 0 -36 -7 -57 -17 -22 -9 -57 -17 -79 -19
-50 -3 -168 -34 -176 -46 -3 -5 -50 -14 -105 -20 -54 -6 -106 -17 -115 -25 -8
-7 -31 -13 -50 -13 -19 -1 -63 -7 -99 -15 -156 -33 -296 -65 -310 -71 -14 -5
-39 -11 -145 -34 -64 -14 -237 -59 -270 -71 -16 -6 -43 -13 -60 -15 -16 -3
-147 -34 -290 -70 -143 -35 -336 -82 -430 -104 -93 -22 -186 -44 -205 -50 -19
-5 -64 -16 -100 -24 -36 -8 -148 -35 -250 -60 -102 -25 -225 -54 -275 -66
-566 -134 -2467 -613 -2680 -675 -63 -19 -144 -41 -365 -100 -221 -59 -210
-55 -185 -65 11 -4 22 -4 25 0 3 4 12 7 20 7 26 1 136 31 120 33 -22 3 110 29
150 29 19 1 48 8 64 16 16 9 36 13 45 10 8 -3 18 -1 21 6 4 6 34 15 66 19 33
5 84 16 114 24 30 9 68 16 84 16 16 0 37 6 45 14 9 7 70 24 136 36 66 12 131
28 145 35 14 6 54 18 90 25 36 6 99 21 140 32 41 10 131 32 200 49 69 16 150
36 181 44 31 8 69 13 85 11 16 -2 20 -1 9 2 -14 3 -5 8 30 18 28 7 61 17 74
20 17 5 22 3 17 -5 -10 -15 29 -14 78 3 31 11 35 15 20 18 -25 6 -17 9 121 42
120 29 137 31 115 15 -11 -8 -5 -9 22 -4 44 7 110 34 88 35 -16 1 76 29 98 30
7 0 11 -4 8 -9 -4 -5 3 -7 14 -4 11 3 17 10 13 16 -4 6 4 8 21 5 18 -4 29 -1
33 8 3 8 12 14 20 14 8 0 11 -4 8 -10 -7 -12 2 -12 30 0 14 6 15 9 5 10 -8 1
14 10 49 21 52 17 65 18 73 7 7 -10 11 -9 22 5 9 12 24 17 43 15 15 -2 33 3
38 10 6 7 35 17 65 22 30 5 85 15 123 21 37 6 67 15 67 20 0 5 14 6 30 3 19
-4 30 -2 30 5 0 7 9 9 25 5 15 -4 25 -2 25 5 0 6 14 11 31 11 16 0 28 4 25 8
-3 5 17 8 45 8 34 -1 53 4 59 14 5 8 10 11 10 6 0 -5 6 -4 13 2 6 5 39 13 72
17 33 4 65 11 71 16 5 5 53 16 105 25 52 9 98 18 103 22 5 3 26 9 45 13 20 4
56 13 81 19 25 7 55 14 67 16 12 2 33 8 47 14 13 5 26 7 28 4 3 -2 23 2 44 10
22 7 63 17 92 21 28 4 54 11 58 16 3 5 18 9 34 9 16 0 41 5 57 11 15 6 39 12
53 15 50 8 147 31 157 37 10 6 146 37 253 57 43 8 79 16 90 20 3 1 10 3 15 4
6 1 26 6 45 12 19 7 60 16 90 22 152 29 255 54 258 63 2 5 22 9 43 9 24 0 38
4 34 10 -3 5 4 10 17 9 32 0 136 18 118 21 -15 3 1 6 155 34 44 8 118 25 165
39 47 13 112 30 145 37 33 6 72 18 87 26 14 8 43 14 63 14 24 0 42 6 51 18 10
14 15 15 25 5 16 -16 33 -17 23 -2 -4 8 1 9 16 4 14 -4 25 -3 30 5 4 7 31 13
61 14 30 1 64 7 75 13 12 7 24 10 27 6 4 -3 12 -1 19 4 13 10 59 20 128 28 19
2 53 13 75 24 21 12 46 21 55 21 8 0 44 7 80 15 92 21 208 44 255 50 22 3 41
10 43 15 2 5 19 12 38 16 22 4 34 12 35 23 0 12 2 12 9 -4 5 -11 9 -14 9 -7 1
6 12 12 26 12 14 0 25 5 25 10 0 6 15 10 34 10 19 0 37 4 41 10 3 5 12 7 21 3
8 -3 21 2 28 12 12 17 14 17 23 1 8 -15 12 -15 39 -1 16 8 39 15 52 15 14 0
22 6 23 18 0 9 3 12 5 5 7 -16 95 -7 143 14 20 9 40 15 45 14 4 -1 13 2 20 7
6 5 20 8 31 6 11 -1 23 2 27 9 6 9 8 9 8 0 0 -15 40 -4 40 11 0 6 5 4 10 -4 9
-13 11 -13 19 0 6 8 25 16 43 17 18 2 44 8 58 13 14 4 42 11 63 15 20 3 37 11
37 17 0 7 7 3 15 -8 14 -19 14 -19 15 1 1 11 4 15 6 8 4 -9 18 -7 54 7 27 11
58 17 69 15 12 -2 21 0 21 5 0 4 10 6 23 3 18 -4 19 -3 7 6 -12 8 -6 11 26 11
22 0 45 5 52 12 9 9 12 9 12 0 0 -6 7 -9 15 -6 8 4 15 13 15 21 0 13 3 13 15
3 10 -9 15 -9 15 -1 0 6 5 11 11 11 5 0 7 -4 4 -10 -3 -5 -1 -10 4 -10 6 0 11
4 11 9 0 5 14 12 30 16 31 7 39 20 18 28 -10 4 -10 6 0 6 14 1 17 61 2 61 -5
0 -10 -5 -10 -11z"/>
<path d="M29103 7113 c-15 -5 -17 -23 -4 -23 5 0 11 7 15 15 3 8 4 15 3 14 -1
0 -8 -3 -14 -6z"/>
<path d="M28380 6929 c0 -5 5 -7 10 -4 6 3 10 8 10 11 0 2 -4 4 -10 4 -5 0
-10 -5 -10 -11z"/>
<path d="M2043 6843 c9 -2 23 -2 30 0 6 3 -1 5 -18 5 -16 0 -22 -2 -12 -5z"/>
<path d="M2050 6810 c0 -5 4 -10 9 -10 6 0 13 5 16 10 3 6 -1 10 -9 10 -9 0
-16 -4 -16 -10z"/>
<path d="M4715 6587 c-22 -24 -64 -278 -57 -340 1 -10 -1 -16 -6 -14 -14 9 -2
-117 13 -133 13 -13 18 -10 43 19 15 18 39 46 55 61 15 15 27 31 27 35 0 4 11
15 24 26 19 15 24 30 29 86 3 48 1 76 -9 95 -8 15 -14 37 -14 50 0 27 -27 71
-40 63 -4 -2 -13 9 -20 25 -7 16 -16 28 -20 25 -5 -3 -10 -1 -12 4 -1 5 -8 4
-13 -2z"/>
<path d="M1808 5784 c-10 -3 -18 -15 -18 -26 0 -17 -3 -18 -15 -8 -12 10 -16
8 -25 -15 -5 -14 -14 -24 -19 -21 -12 8 -33 -44 -36 -90 -1 -23 -6 -47 -9 -53
-4 -6 -1 -11 7 -11 10 0 13 -7 10 -20 -4 -14 0 -20 12 -20 15 0 16 -2 4 -16
-12 -15 -11 -16 10 -9 16 5 21 4 17 -4 -4 -6 0 -11 8 -11 9 0 16 -4 16 -9 0
-5 17 -27 38 -49 20 -22 46 -52 57 -66 10 -13 23 -22 27 -20 4 3 12 -5 18 -16
6 -11 17 -20 24 -20 8 0 17 -11 20 -25 4 -14 10 -25 15 -25 11 0 24 67 15 81
-4 6 0 15 7 20 12 8 12 11 -1 19 -12 8 -12 10 5 10 19 1 18 2 -5 21 -20 17
-21 20 -6 17 24 -4 27 13 27 122 -1 47 -1 101 -1 121 1 56 -16 88 -53 104 -38
16 -123 26 -149 19z"/>
<path d="M4639 5667 c-1 -6 -1 -18 0 -24 1 -7 -2 -13 -7 -13 -5 0 -10 -10 -10
-22 0 -13 -5 -50 -11 -83 -6 -33 -13 -115 -16 -181 -4 -101 -3 -123 10 -134 8
-7 15 -22 15 -34 0 -20 1 -20 20 4 11 14 29 44 40 68 11 23 25 42 32 42 6 0 9
3 6 6 -3 3 4 16 17 30 29 31 48 106 40 156 -6 32 -4 38 11 38 16 0 16 2 -4 16
-12 8 -22 19 -22 24 0 5 -5 21 -12 37 -6 15 -12 34 -14 42 -4 21 -16 29 -56
35 -27 4 -38 2 -39 -7z"/>
<path d="M23418 5653 c7 -3 16 -2 19 1 4 3 -2 6 -13 5 -11 0 -14 -3 -6 -6z"/>
<path d="M23355 5640 c-13 -5 -14 -9 -5 -9 8 0 24 4 35 9 13 5 14 9 5 9 -8 0
-24 -4 -35 -9z"/>
<path d="M210 5201 c0 -5 5 -13 10 -16 6 -3 10 -2 10 4 0 5 -4 13 -10 16 -5 3
-10 2 -10 -4z"/>
<path d="M1950 5187 c0 -7 5 -18 11 -24 7 -7 2 -15 -15 -27 -15 -9 -26 -23
-26 -31 0 -11 -7 -14 -25 -9 -18 4 -27 1 -31 -10 -3 -9 -9 -14 -13 -12 -4 3
-15 -6 -25 -19 -10 -14 -22 -22 -26 -20 -4 3 -11 -6 -14 -20 -4 -14 -11 -25
-17 -25 -16 0 -39 -26 -39 -44 0 -9 -4 -16 -10 -16 -5 0 -10 -10 -10 -22 0
-18 -2 -20 -10 -8 -5 8 -12 11 -15 8 -4 -4 -4 -12 1 -19 4 -7 6 -37 5 -68 -2
-31 -4 -69 -4 -86 -1 -16 -6 -33 -12 -37 -6 -5 -5 -8 3 -8 6 0 12 -11 12 -24
0 -14 4 -27 9 -30 4 -3 11 -19 14 -35 9 -46 79 -63 122 -29 14 11 41 20 59 20
29 0 35 5 51 40 9 22 23 61 30 87 13 50 10 201 -6 241 -11 29 -6 79 11 111 11
19 10 21 -4 16 -22 -9 -20 5 4 36 11 14 20 28 20 31 0 7 -38 46 -45 46 -3 0
-5 -6 -5 -13z m-29 -580 c-10 -9 -11 -8 -5 6 3 10 9 15 12 12 3 -3 0 -11 -7
-18z"/>
<path d="M21298 5153 c6 -2 18 -2 25 0 6 3 1 5 -13 5 -14 0 -19 -2 -12 -5z"/>
<path d="M4590 4879 c0 -5 9 -9 20 -9 11 0 20 2 20 4 0 2 -9 6 -20 9 -11 3
-20 1 -20 -4z"/>
<path d="M0 2340 c0 -5 5 -10 10 -10 6 0 10 5 10 10 0 6 -4 10 -10 10 -5 0
-10 -4 -10 -10z"/>
<path d="M3 1995 c0 -93 2 -158 4 -142 2 15 9 27 14 27 5 0 9 9 9 19 0 11 4
23 10 26 5 3 10 16 11 28 0 21 1 21 10 2 7 -14 8 -2 5 40 -3 33 -10 61 -16 63
-5 2 -10 14 -10 27 0 12 -6 25 -14 28 -8 3 -16 16 -19 29 -2 13 -4 -53 -4
-147z"/>
<path d="M0 435 l0 -435 63 0 c69 1 101 19 113 64 3 14 11 23 16 20 6 -4 8 2
3 15 -8 27 15 83 32 76 7 -2 13 0 13 5 0 6 -7 10 -16 10 -12 0 -15 6 -11 21 3
12 -2 28 -13 39 -28 28 -54 70 -47 77 4 3 0 20 -8 38 -7 19 -10 36 -7 40 4 3
2 9 -4 13 -16 10 -26 60 -14 67 8 5 7 11 0 20 -7 8 -9 19 -5 25 4 6 2 16 -3
23 -13 15 -12 88 1 104 5 7 6 20 3 30 -4 9 -1 21 6 26 9 6 8 7 -5 3 -14 -5
-18 -1 -17 17 1 12 2 28 1 34 -1 13 -85 103 -95 103 -3 0 -6 -196 -6 -435z
m175 -315 c3 -5 1 -10 -4 -10 -6 0 -11 5 -11 10 0 6 2 10 4 10 3 0 8 -4 11
-10z"/>
</g>
</svg>
